G04 EAGLE Gerber RS-274X export*
G75*
%MOMM*%
%FSLAX34Y34*%
%LPD*%
%INBottom Silk screen*%
%IPPOS*%
%AMOC8*
5,1,8,0,0,1.08239X$1,22.5*%
G01*
%ADD10C,0.101600*%


D10*
X162552Y653542D02*
X162552Y641858D01*
X157359Y641858D01*
X153049Y650946D02*
X149804Y653542D01*
X149804Y641858D01*
X153049Y641858D02*
X146558Y641858D01*
X186958Y701746D02*
X183713Y704342D01*
X183713Y692658D01*
X186958Y692658D02*
X180467Y692658D01*
X175529Y698500D02*
X175526Y698730D01*
X175518Y698960D01*
X175504Y699189D01*
X175485Y699418D01*
X175460Y699647D01*
X175430Y699875D01*
X175395Y700102D01*
X175354Y700328D01*
X175308Y700553D01*
X175256Y700777D01*
X175199Y701000D01*
X175137Y701221D01*
X175069Y701441D01*
X174996Y701659D01*
X174918Y701875D01*
X174835Y702089D01*
X174747Y702302D01*
X174654Y702512D01*
X174555Y702719D01*
X174522Y702809D01*
X174486Y702898D01*
X174446Y702986D01*
X174402Y703071D01*
X174355Y703155D01*
X174305Y703237D01*
X174251Y703317D01*
X174195Y703394D01*
X174135Y703470D01*
X174072Y703543D01*
X174007Y703613D01*
X173938Y703681D01*
X173867Y703745D01*
X173794Y703807D01*
X173718Y703866D01*
X173640Y703922D01*
X173559Y703975D01*
X173477Y704024D01*
X173393Y704070D01*
X173306Y704113D01*
X173219Y704152D01*
X173129Y704188D01*
X173039Y704220D01*
X172947Y704248D01*
X172854Y704273D01*
X172760Y704294D01*
X172666Y704311D01*
X172571Y704325D01*
X172475Y704334D01*
X172379Y704340D01*
X172283Y704342D01*
X172187Y704340D01*
X172091Y704334D01*
X171995Y704325D01*
X171900Y704311D01*
X171806Y704294D01*
X171712Y704273D01*
X171619Y704248D01*
X171527Y704220D01*
X171437Y704188D01*
X171347Y704152D01*
X171260Y704113D01*
X171173Y704070D01*
X171089Y704024D01*
X171007Y703975D01*
X170926Y703922D01*
X170848Y703866D01*
X170772Y703807D01*
X170699Y703745D01*
X170628Y703681D01*
X170559Y703613D01*
X170494Y703543D01*
X170431Y703470D01*
X170371Y703395D01*
X170315Y703317D01*
X170261Y703237D01*
X170211Y703155D01*
X170164Y703071D01*
X170121Y702986D01*
X170080Y702898D01*
X170044Y702809D01*
X170011Y702719D01*
X169912Y702511D01*
X169819Y702301D01*
X169731Y702089D01*
X169648Y701875D01*
X169570Y701658D01*
X169497Y701440D01*
X169429Y701221D01*
X169367Y700999D01*
X169310Y700777D01*
X169258Y700553D01*
X169212Y700328D01*
X169171Y700102D01*
X169136Y699874D01*
X169106Y699647D01*
X169081Y699418D01*
X169062Y699189D01*
X169048Y698960D01*
X169040Y698730D01*
X169037Y698500D01*
X175528Y698500D02*
X175525Y698270D01*
X175517Y698040D01*
X175503Y697811D01*
X175484Y697582D01*
X175459Y697353D01*
X175429Y697125D01*
X175394Y696898D01*
X175353Y696672D01*
X175307Y696447D01*
X175255Y696223D01*
X175198Y696000D01*
X175136Y695779D01*
X175068Y695559D01*
X174995Y695341D01*
X174917Y695125D01*
X174834Y694911D01*
X174746Y694699D01*
X174653Y694488D01*
X174554Y694281D01*
X174555Y694281D02*
X174522Y694191D01*
X174486Y694102D01*
X174445Y694014D01*
X174402Y693929D01*
X174355Y693845D01*
X174305Y693763D01*
X174251Y693683D01*
X174195Y693606D01*
X174135Y693530D01*
X174072Y693457D01*
X174007Y693387D01*
X173938Y693319D01*
X173867Y693255D01*
X173794Y693193D01*
X173718Y693134D01*
X173640Y693078D01*
X173559Y693025D01*
X173477Y692976D01*
X173393Y692930D01*
X173306Y692887D01*
X173219Y692848D01*
X173129Y692812D01*
X173039Y692780D01*
X172947Y692752D01*
X172854Y692727D01*
X172760Y692706D01*
X172666Y692689D01*
X172571Y692675D01*
X172475Y692666D01*
X172379Y692660D01*
X172283Y692658D01*
X170011Y694281D02*
X169912Y694488D01*
X169819Y694699D01*
X169731Y694911D01*
X169648Y695125D01*
X169570Y695341D01*
X169497Y695559D01*
X169429Y695779D01*
X169367Y696000D01*
X169310Y696223D01*
X169258Y696447D01*
X169212Y696672D01*
X169171Y696898D01*
X169136Y697125D01*
X169106Y697353D01*
X169081Y697582D01*
X169062Y697811D01*
X169048Y698040D01*
X169040Y698270D01*
X169037Y698500D01*
X170011Y694281D02*
X170044Y694191D01*
X170080Y694102D01*
X170121Y694014D01*
X170164Y693929D01*
X170211Y693845D01*
X170261Y693763D01*
X170315Y693683D01*
X170371Y693605D01*
X170431Y693530D01*
X170494Y693457D01*
X170559Y693387D01*
X170628Y693319D01*
X170699Y693255D01*
X170772Y693193D01*
X170848Y693134D01*
X170926Y693078D01*
X171007Y693025D01*
X171089Y692976D01*
X171173Y692930D01*
X171260Y692887D01*
X171347Y692848D01*
X171437Y692812D01*
X171527Y692780D01*
X171619Y692752D01*
X171712Y692727D01*
X171806Y692706D01*
X171900Y692689D01*
X171995Y692675D01*
X172091Y692666D01*
X172187Y692660D01*
X172283Y692658D01*
X174879Y695254D02*
X169686Y701746D01*
X163830Y700447D02*
X163830Y694605D01*
X163828Y694518D01*
X163822Y694430D01*
X163812Y694344D01*
X163799Y694257D01*
X163781Y694172D01*
X163760Y694087D01*
X163735Y694003D01*
X163706Y693921D01*
X163673Y693840D01*
X163637Y693760D01*
X163598Y693682D01*
X163554Y693606D01*
X163508Y693532D01*
X163458Y693461D01*
X163405Y693391D01*
X163349Y693324D01*
X163290Y693260D01*
X163228Y693198D01*
X163164Y693139D01*
X163097Y693083D01*
X163027Y693030D01*
X162956Y692980D01*
X162882Y692934D01*
X162806Y692890D01*
X162728Y692851D01*
X162648Y692815D01*
X162567Y692782D01*
X162485Y692753D01*
X162401Y692728D01*
X162316Y692707D01*
X162231Y692689D01*
X162144Y692676D01*
X162058Y692666D01*
X161970Y692660D01*
X161883Y692658D01*
X158637Y692658D01*
X158637Y700447D01*
X153049Y704342D02*
X153049Y692658D01*
X153049Y699149D02*
X146558Y699149D01*
X146558Y704342D02*
X146558Y692658D01*
X175252Y526542D02*
X175252Y514858D01*
X170059Y514858D01*
X159258Y523621D02*
X159260Y523728D01*
X159266Y523834D01*
X159276Y523940D01*
X159289Y524046D01*
X159307Y524152D01*
X159328Y524256D01*
X159353Y524360D01*
X159382Y524463D01*
X159414Y524564D01*
X159451Y524664D01*
X159491Y524763D01*
X159534Y524861D01*
X159581Y524957D01*
X159632Y525051D01*
X159686Y525143D01*
X159743Y525233D01*
X159803Y525321D01*
X159867Y525406D01*
X159934Y525489D01*
X160004Y525570D01*
X160076Y525648D01*
X160152Y525724D01*
X160230Y525796D01*
X160311Y525866D01*
X160394Y525933D01*
X160479Y525997D01*
X160567Y526057D01*
X160657Y526114D01*
X160749Y526168D01*
X160843Y526219D01*
X160939Y526266D01*
X161037Y526309D01*
X161136Y526349D01*
X161236Y526386D01*
X161337Y526418D01*
X161440Y526447D01*
X161544Y526472D01*
X161648Y526493D01*
X161754Y526511D01*
X161860Y526524D01*
X161966Y526534D01*
X162072Y526540D01*
X162179Y526542D01*
X162300Y526540D01*
X162421Y526534D01*
X162541Y526524D01*
X162662Y526511D01*
X162781Y526493D01*
X162901Y526472D01*
X163019Y526447D01*
X163136Y526418D01*
X163253Y526385D01*
X163368Y526349D01*
X163482Y526308D01*
X163595Y526265D01*
X163707Y526217D01*
X163816Y526166D01*
X163924Y526111D01*
X164031Y526053D01*
X164135Y525992D01*
X164237Y525927D01*
X164337Y525859D01*
X164435Y525788D01*
X164531Y525714D01*
X164624Y525637D01*
X164714Y525556D01*
X164802Y525473D01*
X164887Y525387D01*
X164970Y525298D01*
X165049Y525207D01*
X165126Y525113D01*
X165199Y525017D01*
X165269Y524919D01*
X165336Y524818D01*
X165400Y524715D01*
X165461Y524610D01*
X165518Y524503D01*
X165571Y524395D01*
X165621Y524285D01*
X165667Y524173D01*
X165710Y524060D01*
X165749Y523945D01*
X160232Y521349D02*
X160153Y521427D01*
X160077Y521507D01*
X160004Y521590D01*
X159934Y521676D01*
X159867Y521763D01*
X159803Y521854D01*
X159743Y521946D01*
X159685Y522040D01*
X159631Y522137D01*
X159581Y522235D01*
X159534Y522335D01*
X159490Y522436D01*
X159450Y522539D01*
X159414Y522644D01*
X159382Y522749D01*
X159353Y522856D01*
X159328Y522963D01*
X159306Y523072D01*
X159289Y523181D01*
X159275Y523290D01*
X159266Y523400D01*
X159260Y523511D01*
X159258Y523621D01*
X160232Y521349D02*
X165749Y514858D01*
X159258Y514858D01*
X199658Y574746D02*
X196413Y577342D01*
X196413Y565658D01*
X199658Y565658D02*
X193167Y565658D01*
X188229Y571500D02*
X188226Y571730D01*
X188218Y571960D01*
X188204Y572189D01*
X188185Y572418D01*
X188160Y572647D01*
X188130Y572875D01*
X188095Y573102D01*
X188054Y573328D01*
X188008Y573553D01*
X187956Y573777D01*
X187899Y574000D01*
X187837Y574221D01*
X187769Y574441D01*
X187696Y574659D01*
X187618Y574875D01*
X187535Y575089D01*
X187447Y575302D01*
X187354Y575512D01*
X187255Y575719D01*
X187222Y575809D01*
X187186Y575898D01*
X187146Y575986D01*
X187102Y576071D01*
X187055Y576155D01*
X187005Y576237D01*
X186951Y576317D01*
X186895Y576394D01*
X186835Y576470D01*
X186772Y576543D01*
X186707Y576613D01*
X186638Y576681D01*
X186567Y576745D01*
X186494Y576807D01*
X186418Y576866D01*
X186340Y576922D01*
X186259Y576975D01*
X186177Y577024D01*
X186093Y577070D01*
X186006Y577113D01*
X185919Y577152D01*
X185829Y577188D01*
X185739Y577220D01*
X185647Y577248D01*
X185554Y577273D01*
X185460Y577294D01*
X185366Y577311D01*
X185271Y577325D01*
X185175Y577334D01*
X185079Y577340D01*
X184983Y577342D01*
X184887Y577340D01*
X184791Y577334D01*
X184695Y577325D01*
X184600Y577311D01*
X184506Y577294D01*
X184412Y577273D01*
X184319Y577248D01*
X184227Y577220D01*
X184137Y577188D01*
X184047Y577152D01*
X183960Y577113D01*
X183873Y577070D01*
X183789Y577024D01*
X183707Y576975D01*
X183626Y576922D01*
X183548Y576866D01*
X183472Y576807D01*
X183399Y576745D01*
X183328Y576681D01*
X183259Y576613D01*
X183194Y576543D01*
X183131Y576470D01*
X183071Y576395D01*
X183015Y576317D01*
X182961Y576237D01*
X182911Y576155D01*
X182864Y576071D01*
X182821Y575986D01*
X182780Y575898D01*
X182744Y575809D01*
X182711Y575719D01*
X182612Y575511D01*
X182519Y575301D01*
X182431Y575089D01*
X182348Y574875D01*
X182270Y574658D01*
X182197Y574440D01*
X182129Y574221D01*
X182067Y573999D01*
X182010Y573777D01*
X181958Y573553D01*
X181912Y573328D01*
X181871Y573102D01*
X181836Y572874D01*
X181806Y572647D01*
X181781Y572418D01*
X181762Y572189D01*
X181748Y571960D01*
X181740Y571730D01*
X181737Y571500D01*
X188228Y571500D02*
X188225Y571270D01*
X188217Y571040D01*
X188203Y570811D01*
X188184Y570582D01*
X188159Y570353D01*
X188129Y570125D01*
X188094Y569898D01*
X188053Y569672D01*
X188007Y569447D01*
X187955Y569223D01*
X187898Y569000D01*
X187836Y568779D01*
X187768Y568559D01*
X187695Y568341D01*
X187617Y568125D01*
X187534Y567911D01*
X187446Y567699D01*
X187353Y567488D01*
X187254Y567281D01*
X187255Y567281D02*
X187222Y567191D01*
X187186Y567102D01*
X187145Y567014D01*
X187102Y566929D01*
X187055Y566845D01*
X187005Y566763D01*
X186951Y566683D01*
X186895Y566606D01*
X186835Y566530D01*
X186772Y566457D01*
X186707Y566387D01*
X186638Y566319D01*
X186567Y566255D01*
X186494Y566193D01*
X186418Y566134D01*
X186340Y566078D01*
X186259Y566025D01*
X186177Y565976D01*
X186093Y565930D01*
X186006Y565887D01*
X185919Y565848D01*
X185829Y565812D01*
X185739Y565780D01*
X185647Y565752D01*
X185554Y565727D01*
X185460Y565706D01*
X185366Y565689D01*
X185271Y565675D01*
X185175Y565666D01*
X185079Y565660D01*
X184983Y565658D01*
X182711Y567281D02*
X182612Y567488D01*
X182519Y567699D01*
X182431Y567911D01*
X182348Y568125D01*
X182270Y568341D01*
X182197Y568559D01*
X182129Y568779D01*
X182067Y569000D01*
X182010Y569223D01*
X181958Y569447D01*
X181912Y569672D01*
X181871Y569898D01*
X181836Y570125D01*
X181806Y570353D01*
X181781Y570582D01*
X181762Y570811D01*
X181748Y571040D01*
X181740Y571270D01*
X181737Y571500D01*
X182711Y567281D02*
X182744Y567191D01*
X182780Y567102D01*
X182821Y567014D01*
X182864Y566929D01*
X182911Y566845D01*
X182961Y566763D01*
X183015Y566683D01*
X183071Y566605D01*
X183131Y566530D01*
X183194Y566457D01*
X183259Y566387D01*
X183328Y566319D01*
X183399Y566255D01*
X183472Y566193D01*
X183548Y566134D01*
X183626Y566078D01*
X183707Y566025D01*
X183789Y565976D01*
X183873Y565930D01*
X183960Y565887D01*
X184047Y565848D01*
X184137Y565812D01*
X184227Y565780D01*
X184319Y565752D01*
X184412Y565727D01*
X184506Y565706D01*
X184600Y565689D01*
X184695Y565675D01*
X184791Y565666D01*
X184887Y565660D01*
X184983Y565658D01*
X187579Y568254D02*
X182386Y574746D01*
X176530Y573447D02*
X176530Y567605D01*
X176528Y567518D01*
X176522Y567430D01*
X176512Y567344D01*
X176499Y567257D01*
X176481Y567172D01*
X176460Y567087D01*
X176435Y567003D01*
X176406Y566921D01*
X176373Y566840D01*
X176337Y566760D01*
X176298Y566682D01*
X176254Y566606D01*
X176208Y566532D01*
X176158Y566461D01*
X176105Y566391D01*
X176049Y566324D01*
X175990Y566260D01*
X175928Y566198D01*
X175864Y566139D01*
X175797Y566083D01*
X175727Y566030D01*
X175656Y565980D01*
X175582Y565934D01*
X175506Y565890D01*
X175428Y565851D01*
X175348Y565815D01*
X175267Y565782D01*
X175185Y565753D01*
X175101Y565728D01*
X175016Y565707D01*
X174931Y565689D01*
X174844Y565676D01*
X174758Y565666D01*
X174670Y565660D01*
X174583Y565658D01*
X171337Y565658D01*
X171337Y573447D01*
X165749Y577342D02*
X165749Y565658D01*
X165749Y572149D02*
X159258Y572149D01*
X159258Y577342D02*
X159258Y565658D01*
X175252Y399542D02*
X175252Y387858D01*
X170059Y387858D01*
X165749Y387858D02*
X162504Y387858D01*
X162391Y387860D01*
X162278Y387866D01*
X162165Y387876D01*
X162052Y387890D01*
X161940Y387907D01*
X161829Y387929D01*
X161719Y387954D01*
X161609Y387984D01*
X161501Y388017D01*
X161394Y388054D01*
X161288Y388094D01*
X161184Y388139D01*
X161081Y388187D01*
X160980Y388238D01*
X160881Y388293D01*
X160784Y388351D01*
X160689Y388413D01*
X160596Y388478D01*
X160506Y388546D01*
X160418Y388617D01*
X160332Y388692D01*
X160249Y388769D01*
X160169Y388849D01*
X160092Y388932D01*
X160017Y389018D01*
X159946Y389106D01*
X159878Y389196D01*
X159813Y389289D01*
X159751Y389384D01*
X159693Y389481D01*
X159638Y389580D01*
X159587Y389681D01*
X159539Y389784D01*
X159494Y389888D01*
X159454Y389994D01*
X159417Y390101D01*
X159384Y390209D01*
X159354Y390319D01*
X159329Y390429D01*
X159307Y390540D01*
X159290Y390652D01*
X159276Y390765D01*
X159266Y390878D01*
X159260Y390991D01*
X159258Y391104D01*
X159260Y391217D01*
X159266Y391330D01*
X159276Y391443D01*
X159290Y391556D01*
X159307Y391668D01*
X159329Y391779D01*
X159354Y391889D01*
X159384Y391999D01*
X159417Y392107D01*
X159454Y392214D01*
X159494Y392320D01*
X159539Y392424D01*
X159587Y392527D01*
X159638Y392628D01*
X159693Y392727D01*
X159751Y392824D01*
X159813Y392919D01*
X159878Y393012D01*
X159946Y393102D01*
X160017Y393190D01*
X160092Y393276D01*
X160169Y393359D01*
X160249Y393439D01*
X160332Y393516D01*
X160418Y393591D01*
X160506Y393662D01*
X160596Y393730D01*
X160689Y393795D01*
X160784Y393857D01*
X160881Y393915D01*
X160980Y393970D01*
X161081Y394021D01*
X161184Y394069D01*
X161288Y394114D01*
X161394Y394154D01*
X161501Y394191D01*
X161609Y394224D01*
X161719Y394254D01*
X161829Y394279D01*
X161940Y394301D01*
X162052Y394318D01*
X162165Y394332D01*
X162278Y394342D01*
X162391Y394348D01*
X162504Y394350D01*
X161854Y399542D02*
X165749Y399542D01*
X161854Y399542D02*
X161753Y399540D01*
X161653Y399534D01*
X161553Y399524D01*
X161453Y399511D01*
X161354Y399493D01*
X161255Y399472D01*
X161158Y399447D01*
X161061Y399418D01*
X160966Y399385D01*
X160872Y399349D01*
X160780Y399309D01*
X160689Y399266D01*
X160600Y399219D01*
X160513Y399169D01*
X160427Y399115D01*
X160344Y399058D01*
X160264Y398998D01*
X160185Y398935D01*
X160109Y398868D01*
X160036Y398799D01*
X159966Y398727D01*
X159898Y398653D01*
X159833Y398576D01*
X159772Y398496D01*
X159713Y398414D01*
X159658Y398330D01*
X159606Y398244D01*
X159557Y398156D01*
X159512Y398066D01*
X159470Y397974D01*
X159432Y397881D01*
X159398Y397786D01*
X159367Y397691D01*
X159340Y397594D01*
X159317Y397496D01*
X159297Y397397D01*
X159282Y397297D01*
X159270Y397197D01*
X159262Y397097D01*
X159258Y396996D01*
X159258Y396896D01*
X159262Y396795D01*
X159270Y396695D01*
X159282Y396595D01*
X159297Y396495D01*
X159317Y396396D01*
X159340Y396298D01*
X159367Y396201D01*
X159398Y396106D01*
X159432Y396011D01*
X159470Y395918D01*
X159512Y395826D01*
X159557Y395736D01*
X159606Y395648D01*
X159658Y395562D01*
X159713Y395478D01*
X159772Y395396D01*
X159833Y395316D01*
X159898Y395239D01*
X159966Y395165D01*
X160036Y395093D01*
X160109Y395024D01*
X160185Y394957D01*
X160264Y394894D01*
X160344Y394834D01*
X160427Y394777D01*
X160513Y394723D01*
X160600Y394673D01*
X160689Y394626D01*
X160780Y394583D01*
X160872Y394543D01*
X160966Y394507D01*
X161061Y394474D01*
X161158Y394445D01*
X161255Y394420D01*
X161354Y394399D01*
X161453Y394381D01*
X161553Y394368D01*
X161653Y394358D01*
X161753Y394352D01*
X161854Y394350D01*
X161854Y394349D02*
X164451Y394349D01*
X199658Y447746D02*
X196413Y450342D01*
X196413Y438658D01*
X199658Y438658D02*
X193167Y438658D01*
X188229Y444500D02*
X188226Y444730D01*
X188218Y444960D01*
X188204Y445189D01*
X188185Y445418D01*
X188160Y445647D01*
X188130Y445875D01*
X188095Y446102D01*
X188054Y446328D01*
X188008Y446553D01*
X187956Y446777D01*
X187899Y447000D01*
X187837Y447221D01*
X187769Y447441D01*
X187696Y447659D01*
X187618Y447875D01*
X187535Y448089D01*
X187447Y448302D01*
X187354Y448512D01*
X187255Y448719D01*
X187222Y448809D01*
X187186Y448898D01*
X187146Y448986D01*
X187102Y449071D01*
X187055Y449155D01*
X187005Y449237D01*
X186951Y449317D01*
X186895Y449394D01*
X186835Y449470D01*
X186772Y449543D01*
X186707Y449613D01*
X186638Y449681D01*
X186567Y449745D01*
X186494Y449807D01*
X186418Y449866D01*
X186340Y449922D01*
X186259Y449975D01*
X186177Y450024D01*
X186093Y450070D01*
X186006Y450113D01*
X185919Y450152D01*
X185829Y450188D01*
X185739Y450220D01*
X185647Y450248D01*
X185554Y450273D01*
X185460Y450294D01*
X185366Y450311D01*
X185271Y450325D01*
X185175Y450334D01*
X185079Y450340D01*
X184983Y450342D01*
X184887Y450340D01*
X184791Y450334D01*
X184695Y450325D01*
X184600Y450311D01*
X184506Y450294D01*
X184412Y450273D01*
X184319Y450248D01*
X184227Y450220D01*
X184137Y450188D01*
X184047Y450152D01*
X183960Y450113D01*
X183873Y450070D01*
X183789Y450024D01*
X183707Y449975D01*
X183626Y449922D01*
X183548Y449866D01*
X183472Y449807D01*
X183399Y449745D01*
X183328Y449681D01*
X183259Y449613D01*
X183194Y449543D01*
X183131Y449470D01*
X183071Y449395D01*
X183015Y449317D01*
X182961Y449237D01*
X182911Y449155D01*
X182864Y449071D01*
X182821Y448986D01*
X182780Y448898D01*
X182744Y448809D01*
X182711Y448719D01*
X182612Y448511D01*
X182519Y448301D01*
X182431Y448089D01*
X182348Y447875D01*
X182270Y447658D01*
X182197Y447440D01*
X182129Y447221D01*
X182067Y446999D01*
X182010Y446777D01*
X181958Y446553D01*
X181912Y446328D01*
X181871Y446102D01*
X181836Y445874D01*
X181806Y445647D01*
X181781Y445418D01*
X181762Y445189D01*
X181748Y444960D01*
X181740Y444730D01*
X181737Y444500D01*
X188228Y444500D02*
X188225Y444270D01*
X188217Y444040D01*
X188203Y443811D01*
X188184Y443582D01*
X188159Y443353D01*
X188129Y443125D01*
X188094Y442898D01*
X188053Y442672D01*
X188007Y442447D01*
X187955Y442223D01*
X187898Y442000D01*
X187836Y441779D01*
X187768Y441559D01*
X187695Y441341D01*
X187617Y441125D01*
X187534Y440911D01*
X187446Y440699D01*
X187353Y440488D01*
X187254Y440281D01*
X187255Y440281D02*
X187222Y440191D01*
X187186Y440102D01*
X187145Y440014D01*
X187102Y439929D01*
X187055Y439845D01*
X187005Y439763D01*
X186951Y439683D01*
X186895Y439606D01*
X186835Y439530D01*
X186772Y439457D01*
X186707Y439387D01*
X186638Y439319D01*
X186567Y439255D01*
X186494Y439193D01*
X186418Y439134D01*
X186340Y439078D01*
X186259Y439025D01*
X186177Y438976D01*
X186093Y438930D01*
X186006Y438887D01*
X185919Y438848D01*
X185829Y438812D01*
X185739Y438780D01*
X185647Y438752D01*
X185554Y438727D01*
X185460Y438706D01*
X185366Y438689D01*
X185271Y438675D01*
X185175Y438666D01*
X185079Y438660D01*
X184983Y438658D01*
X182711Y440281D02*
X182612Y440488D01*
X182519Y440699D01*
X182431Y440911D01*
X182348Y441125D01*
X182270Y441341D01*
X182197Y441559D01*
X182129Y441779D01*
X182067Y442000D01*
X182010Y442223D01*
X181958Y442447D01*
X181912Y442672D01*
X181871Y442898D01*
X181836Y443125D01*
X181806Y443353D01*
X181781Y443582D01*
X181762Y443811D01*
X181748Y444040D01*
X181740Y444270D01*
X181737Y444500D01*
X182711Y440281D02*
X182744Y440191D01*
X182780Y440102D01*
X182821Y440014D01*
X182864Y439929D01*
X182911Y439845D01*
X182961Y439763D01*
X183015Y439683D01*
X183071Y439605D01*
X183131Y439530D01*
X183194Y439457D01*
X183259Y439387D01*
X183328Y439319D01*
X183399Y439255D01*
X183472Y439193D01*
X183548Y439134D01*
X183626Y439078D01*
X183707Y439025D01*
X183789Y438976D01*
X183873Y438930D01*
X183960Y438887D01*
X184047Y438848D01*
X184137Y438812D01*
X184227Y438780D01*
X184319Y438752D01*
X184412Y438727D01*
X184506Y438706D01*
X184600Y438689D01*
X184695Y438675D01*
X184791Y438666D01*
X184887Y438660D01*
X184983Y438658D01*
X187579Y441254D02*
X182386Y447746D01*
X176530Y446447D02*
X176530Y440605D01*
X176528Y440518D01*
X176522Y440430D01*
X176512Y440344D01*
X176499Y440257D01*
X176481Y440172D01*
X176460Y440087D01*
X176435Y440003D01*
X176406Y439921D01*
X176373Y439840D01*
X176337Y439760D01*
X176298Y439682D01*
X176254Y439606D01*
X176208Y439532D01*
X176158Y439461D01*
X176105Y439391D01*
X176049Y439324D01*
X175990Y439260D01*
X175928Y439198D01*
X175864Y439139D01*
X175797Y439083D01*
X175727Y439030D01*
X175656Y438980D01*
X175582Y438934D01*
X175506Y438890D01*
X175428Y438851D01*
X175348Y438815D01*
X175267Y438782D01*
X175185Y438753D01*
X175101Y438728D01*
X175016Y438707D01*
X174931Y438689D01*
X174844Y438676D01*
X174758Y438666D01*
X174670Y438660D01*
X174583Y438658D01*
X171337Y438658D01*
X171337Y446447D01*
X165749Y450342D02*
X165749Y438658D01*
X165749Y445149D02*
X159258Y445149D01*
X159258Y450342D02*
X159258Y438658D01*
X311799Y724408D02*
X314396Y724408D01*
X314495Y724410D01*
X314595Y724416D01*
X314694Y724425D01*
X314792Y724438D01*
X314890Y724455D01*
X314988Y724476D01*
X315084Y724501D01*
X315179Y724529D01*
X315273Y724561D01*
X315366Y724596D01*
X315458Y724635D01*
X315548Y724678D01*
X315636Y724723D01*
X315723Y724773D01*
X315807Y724825D01*
X315890Y724881D01*
X315970Y724939D01*
X316048Y725001D01*
X316123Y725066D01*
X316196Y725134D01*
X316266Y725204D01*
X316334Y725277D01*
X316399Y725352D01*
X316461Y725430D01*
X316519Y725510D01*
X316575Y725593D01*
X316627Y725677D01*
X316677Y725764D01*
X316722Y725852D01*
X316765Y725942D01*
X316804Y726034D01*
X316839Y726127D01*
X316871Y726221D01*
X316899Y726316D01*
X316924Y726412D01*
X316945Y726510D01*
X316962Y726608D01*
X316975Y726706D01*
X316984Y726805D01*
X316990Y726905D01*
X316992Y727004D01*
X316992Y733496D01*
X316990Y733595D01*
X316984Y733695D01*
X316975Y733794D01*
X316962Y733892D01*
X316945Y733990D01*
X316924Y734088D01*
X316899Y734184D01*
X316871Y734279D01*
X316839Y734373D01*
X316804Y734466D01*
X316765Y734558D01*
X316722Y734648D01*
X316677Y734736D01*
X316627Y734823D01*
X316575Y734907D01*
X316519Y734990D01*
X316461Y735070D01*
X316399Y735148D01*
X316334Y735223D01*
X316266Y735296D01*
X316196Y735366D01*
X316123Y735434D01*
X316048Y735499D01*
X315970Y735561D01*
X315890Y735619D01*
X315807Y735675D01*
X315723Y735727D01*
X315636Y735777D01*
X315548Y735822D01*
X315458Y735865D01*
X315366Y735904D01*
X315273Y735939D01*
X315179Y735971D01*
X315084Y735999D01*
X314988Y736024D01*
X314890Y736045D01*
X314792Y736062D01*
X314694Y736075D01*
X314595Y736084D01*
X314495Y736090D01*
X314396Y736092D01*
X311799Y736092D01*
X307434Y724408D02*
X303539Y724408D01*
X303440Y724410D01*
X303340Y724416D01*
X303241Y724425D01*
X303143Y724438D01*
X303045Y724455D01*
X302947Y724476D01*
X302851Y724501D01*
X302756Y724529D01*
X302662Y724561D01*
X302569Y724596D01*
X302477Y724635D01*
X302387Y724678D01*
X302299Y724723D01*
X302212Y724773D01*
X302128Y724825D01*
X302045Y724881D01*
X301965Y724939D01*
X301887Y725001D01*
X301812Y725066D01*
X301739Y725134D01*
X301669Y725204D01*
X301601Y725277D01*
X301536Y725352D01*
X301474Y725430D01*
X301416Y725510D01*
X301360Y725593D01*
X301308Y725677D01*
X301258Y725764D01*
X301213Y725852D01*
X301170Y725942D01*
X301131Y726034D01*
X301096Y726127D01*
X301064Y726221D01*
X301036Y726316D01*
X301011Y726412D01*
X300990Y726510D01*
X300973Y726608D01*
X300960Y726706D01*
X300951Y726805D01*
X300945Y726905D01*
X300943Y727004D01*
X300943Y728303D01*
X300945Y728402D01*
X300951Y728502D01*
X300960Y728601D01*
X300973Y728699D01*
X300990Y728797D01*
X301011Y728895D01*
X301036Y728991D01*
X301064Y729086D01*
X301096Y729180D01*
X301131Y729273D01*
X301170Y729365D01*
X301213Y729455D01*
X301258Y729543D01*
X301308Y729630D01*
X301360Y729714D01*
X301416Y729797D01*
X301474Y729877D01*
X301536Y729955D01*
X301601Y730030D01*
X301669Y730103D01*
X301739Y730173D01*
X301812Y730241D01*
X301887Y730306D01*
X301965Y730368D01*
X302045Y730426D01*
X302128Y730482D01*
X302212Y730534D01*
X302299Y730584D01*
X302387Y730629D01*
X302477Y730672D01*
X302569Y730711D01*
X302662Y730746D01*
X302756Y730778D01*
X302851Y730806D01*
X302947Y730831D01*
X303045Y730852D01*
X303143Y730869D01*
X303241Y730882D01*
X303340Y730891D01*
X303440Y730897D01*
X303539Y730899D01*
X307434Y730899D01*
X307434Y736092D01*
X300943Y736092D01*
X313746Y697992D02*
X316992Y695396D01*
X313746Y697992D02*
X313746Y686308D01*
X310501Y686308D02*
X316992Y686308D01*
X305294Y688255D02*
X305294Y694097D01*
X305294Y688255D02*
X305292Y688168D01*
X305286Y688080D01*
X305276Y687994D01*
X305263Y687907D01*
X305245Y687822D01*
X305224Y687737D01*
X305199Y687653D01*
X305170Y687571D01*
X305137Y687490D01*
X305101Y687410D01*
X305062Y687332D01*
X305018Y687256D01*
X304972Y687182D01*
X304922Y687111D01*
X304869Y687041D01*
X304813Y686974D01*
X304754Y686910D01*
X304692Y686848D01*
X304628Y686789D01*
X304561Y686733D01*
X304491Y686680D01*
X304420Y686630D01*
X304346Y686584D01*
X304270Y686540D01*
X304192Y686501D01*
X304112Y686465D01*
X304031Y686432D01*
X303949Y686403D01*
X303865Y686378D01*
X303780Y686357D01*
X303695Y686339D01*
X303608Y686326D01*
X303522Y686316D01*
X303434Y686310D01*
X303347Y686308D01*
X300101Y686308D01*
X300101Y694097D01*
X294490Y697992D02*
X294490Y686308D01*
X294490Y697992D02*
X289298Y697992D01*
X289298Y692799D02*
X294490Y692799D01*
X311799Y470408D02*
X314396Y470408D01*
X314495Y470410D01*
X314595Y470416D01*
X314694Y470425D01*
X314792Y470438D01*
X314890Y470455D01*
X314988Y470476D01*
X315084Y470501D01*
X315179Y470529D01*
X315273Y470561D01*
X315366Y470596D01*
X315458Y470635D01*
X315548Y470678D01*
X315636Y470723D01*
X315723Y470773D01*
X315807Y470825D01*
X315890Y470881D01*
X315970Y470939D01*
X316048Y471001D01*
X316123Y471066D01*
X316196Y471134D01*
X316266Y471204D01*
X316334Y471277D01*
X316399Y471352D01*
X316461Y471430D01*
X316519Y471510D01*
X316575Y471593D01*
X316627Y471677D01*
X316677Y471764D01*
X316722Y471852D01*
X316765Y471942D01*
X316804Y472034D01*
X316839Y472127D01*
X316871Y472221D01*
X316899Y472316D01*
X316924Y472412D01*
X316945Y472510D01*
X316962Y472608D01*
X316975Y472706D01*
X316984Y472805D01*
X316990Y472905D01*
X316992Y473004D01*
X316992Y479496D01*
X316990Y479595D01*
X316984Y479695D01*
X316975Y479794D01*
X316962Y479892D01*
X316945Y479990D01*
X316924Y480088D01*
X316899Y480184D01*
X316871Y480279D01*
X316839Y480373D01*
X316804Y480466D01*
X316765Y480558D01*
X316722Y480648D01*
X316677Y480736D01*
X316627Y480823D01*
X316575Y480907D01*
X316519Y480990D01*
X316461Y481070D01*
X316399Y481148D01*
X316334Y481223D01*
X316266Y481296D01*
X316196Y481366D01*
X316123Y481434D01*
X316048Y481499D01*
X315970Y481561D01*
X315890Y481619D01*
X315807Y481675D01*
X315723Y481727D01*
X315636Y481777D01*
X315548Y481822D01*
X315458Y481865D01*
X315366Y481904D01*
X315273Y481939D01*
X315179Y481971D01*
X315084Y481999D01*
X314988Y482024D01*
X314890Y482045D01*
X314792Y482062D01*
X314694Y482075D01*
X314595Y482084D01*
X314495Y482090D01*
X314396Y482092D01*
X311799Y482092D01*
X307434Y476899D02*
X303539Y476899D01*
X303440Y476897D01*
X303340Y476891D01*
X303241Y476882D01*
X303143Y476869D01*
X303045Y476852D01*
X302947Y476831D01*
X302851Y476806D01*
X302756Y476778D01*
X302662Y476746D01*
X302569Y476711D01*
X302477Y476672D01*
X302387Y476629D01*
X302299Y476584D01*
X302212Y476534D01*
X302128Y476482D01*
X302045Y476426D01*
X301965Y476368D01*
X301887Y476306D01*
X301812Y476241D01*
X301739Y476173D01*
X301669Y476103D01*
X301601Y476030D01*
X301536Y475955D01*
X301474Y475877D01*
X301416Y475797D01*
X301360Y475714D01*
X301308Y475630D01*
X301258Y475543D01*
X301213Y475455D01*
X301170Y475365D01*
X301131Y475273D01*
X301096Y475180D01*
X301064Y475086D01*
X301036Y474991D01*
X301011Y474895D01*
X300990Y474797D01*
X300973Y474699D01*
X300960Y474601D01*
X300951Y474502D01*
X300945Y474402D01*
X300943Y474303D01*
X300943Y473654D01*
X300942Y473654D02*
X300944Y473541D01*
X300950Y473428D01*
X300960Y473315D01*
X300974Y473202D01*
X300991Y473090D01*
X301013Y472979D01*
X301038Y472869D01*
X301068Y472759D01*
X301101Y472651D01*
X301138Y472544D01*
X301178Y472438D01*
X301223Y472334D01*
X301271Y472231D01*
X301322Y472130D01*
X301377Y472031D01*
X301435Y471934D01*
X301497Y471839D01*
X301562Y471746D01*
X301630Y471656D01*
X301701Y471568D01*
X301776Y471482D01*
X301853Y471399D01*
X301933Y471319D01*
X302016Y471242D01*
X302102Y471167D01*
X302190Y471096D01*
X302280Y471028D01*
X302373Y470963D01*
X302468Y470901D01*
X302565Y470843D01*
X302664Y470788D01*
X302765Y470737D01*
X302868Y470689D01*
X302972Y470644D01*
X303078Y470604D01*
X303185Y470567D01*
X303293Y470534D01*
X303403Y470504D01*
X303513Y470479D01*
X303624Y470457D01*
X303736Y470440D01*
X303849Y470426D01*
X303962Y470416D01*
X304075Y470410D01*
X304188Y470408D01*
X304301Y470410D01*
X304414Y470416D01*
X304527Y470426D01*
X304640Y470440D01*
X304752Y470457D01*
X304863Y470479D01*
X304973Y470504D01*
X305083Y470534D01*
X305191Y470567D01*
X305298Y470604D01*
X305404Y470644D01*
X305508Y470689D01*
X305611Y470737D01*
X305712Y470788D01*
X305811Y470843D01*
X305908Y470901D01*
X306003Y470963D01*
X306096Y471028D01*
X306186Y471096D01*
X306274Y471167D01*
X306360Y471242D01*
X306443Y471319D01*
X306523Y471399D01*
X306600Y471482D01*
X306675Y471568D01*
X306746Y471656D01*
X306814Y471746D01*
X306879Y471839D01*
X306941Y471934D01*
X306999Y472031D01*
X307054Y472130D01*
X307105Y472231D01*
X307153Y472334D01*
X307198Y472438D01*
X307238Y472544D01*
X307275Y472651D01*
X307308Y472759D01*
X307338Y472869D01*
X307363Y472979D01*
X307385Y473090D01*
X307402Y473202D01*
X307416Y473315D01*
X307426Y473428D01*
X307432Y473541D01*
X307434Y473654D01*
X307434Y476899D01*
X307432Y477042D01*
X307426Y477185D01*
X307416Y477328D01*
X307402Y477470D01*
X307385Y477612D01*
X307363Y477754D01*
X307338Y477895D01*
X307308Y478035D01*
X307275Y478174D01*
X307238Y478312D01*
X307197Y478449D01*
X307153Y478585D01*
X307104Y478720D01*
X307052Y478853D01*
X306997Y478985D01*
X306937Y479115D01*
X306874Y479244D01*
X306808Y479371D01*
X306738Y479496D01*
X306665Y479618D01*
X306588Y479739D01*
X306508Y479858D01*
X306425Y479974D01*
X306339Y480089D01*
X306250Y480200D01*
X306157Y480310D01*
X306062Y480416D01*
X305963Y480520D01*
X305862Y480621D01*
X305758Y480720D01*
X305652Y480815D01*
X305542Y480908D01*
X305431Y480997D01*
X305316Y481083D01*
X305200Y481166D01*
X305081Y481246D01*
X304960Y481323D01*
X304838Y481396D01*
X304713Y481466D01*
X304586Y481532D01*
X304457Y481595D01*
X304327Y481655D01*
X304195Y481710D01*
X304062Y481762D01*
X303927Y481811D01*
X303791Y481855D01*
X303654Y481896D01*
X303516Y481933D01*
X303377Y481966D01*
X303237Y481996D01*
X303096Y482021D01*
X302954Y482043D01*
X302812Y482060D01*
X302670Y482074D01*
X302527Y482084D01*
X302384Y482090D01*
X302241Y482092D01*
X313746Y443992D02*
X316992Y441396D01*
X313746Y443992D02*
X313746Y432308D01*
X310501Y432308D02*
X316992Y432308D01*
X305294Y434255D02*
X305294Y440097D01*
X305294Y434255D02*
X305292Y434168D01*
X305286Y434080D01*
X305276Y433994D01*
X305263Y433907D01*
X305245Y433822D01*
X305224Y433737D01*
X305199Y433653D01*
X305170Y433571D01*
X305137Y433490D01*
X305101Y433410D01*
X305062Y433332D01*
X305018Y433256D01*
X304972Y433182D01*
X304922Y433111D01*
X304869Y433041D01*
X304813Y432974D01*
X304754Y432910D01*
X304692Y432848D01*
X304628Y432789D01*
X304561Y432733D01*
X304491Y432680D01*
X304420Y432630D01*
X304346Y432584D01*
X304270Y432540D01*
X304192Y432501D01*
X304112Y432465D01*
X304031Y432432D01*
X303949Y432403D01*
X303865Y432378D01*
X303780Y432357D01*
X303695Y432339D01*
X303608Y432326D01*
X303522Y432316D01*
X303434Y432310D01*
X303347Y432308D01*
X300101Y432308D01*
X300101Y440097D01*
X294490Y443992D02*
X294490Y432308D01*
X294490Y443992D02*
X289298Y443992D01*
X289298Y438799D02*
X294490Y438799D01*
X311799Y597408D02*
X314396Y597408D01*
X314495Y597410D01*
X314595Y597416D01*
X314694Y597425D01*
X314792Y597438D01*
X314890Y597455D01*
X314988Y597476D01*
X315084Y597501D01*
X315179Y597529D01*
X315273Y597561D01*
X315366Y597596D01*
X315458Y597635D01*
X315548Y597678D01*
X315636Y597723D01*
X315723Y597773D01*
X315807Y597825D01*
X315890Y597881D01*
X315970Y597939D01*
X316048Y598001D01*
X316123Y598066D01*
X316196Y598134D01*
X316266Y598204D01*
X316334Y598277D01*
X316399Y598352D01*
X316461Y598430D01*
X316519Y598510D01*
X316575Y598593D01*
X316627Y598677D01*
X316677Y598764D01*
X316722Y598852D01*
X316765Y598942D01*
X316804Y599034D01*
X316839Y599127D01*
X316871Y599221D01*
X316899Y599316D01*
X316924Y599412D01*
X316945Y599510D01*
X316962Y599608D01*
X316975Y599706D01*
X316984Y599805D01*
X316990Y599905D01*
X316992Y600004D01*
X316992Y606496D01*
X316990Y606595D01*
X316984Y606695D01*
X316975Y606794D01*
X316962Y606892D01*
X316945Y606990D01*
X316924Y607088D01*
X316899Y607184D01*
X316871Y607279D01*
X316839Y607373D01*
X316804Y607466D01*
X316765Y607558D01*
X316722Y607648D01*
X316677Y607736D01*
X316627Y607823D01*
X316575Y607907D01*
X316519Y607990D01*
X316461Y608070D01*
X316399Y608148D01*
X316334Y608223D01*
X316266Y608296D01*
X316196Y608366D01*
X316123Y608434D01*
X316048Y608499D01*
X315970Y608561D01*
X315890Y608619D01*
X315807Y608675D01*
X315723Y608727D01*
X315636Y608777D01*
X315548Y608822D01*
X315458Y608865D01*
X315366Y608904D01*
X315273Y608939D01*
X315179Y608971D01*
X315084Y608999D01*
X314988Y609024D01*
X314890Y609045D01*
X314792Y609062D01*
X314694Y609075D01*
X314595Y609084D01*
X314495Y609090D01*
X314396Y609092D01*
X311799Y609092D01*
X307434Y609092D02*
X307434Y607794D01*
X307434Y609092D02*
X300943Y609092D01*
X304188Y597408D01*
X313746Y570992D02*
X316992Y568396D01*
X313746Y570992D02*
X313746Y559308D01*
X310501Y559308D02*
X316992Y559308D01*
X305294Y561255D02*
X305294Y567097D01*
X305294Y561255D02*
X305292Y561168D01*
X305286Y561080D01*
X305276Y560994D01*
X305263Y560907D01*
X305245Y560822D01*
X305224Y560737D01*
X305199Y560653D01*
X305170Y560571D01*
X305137Y560490D01*
X305101Y560410D01*
X305062Y560332D01*
X305018Y560256D01*
X304972Y560182D01*
X304922Y560111D01*
X304869Y560041D01*
X304813Y559974D01*
X304754Y559910D01*
X304692Y559848D01*
X304628Y559789D01*
X304561Y559733D01*
X304491Y559680D01*
X304420Y559630D01*
X304346Y559584D01*
X304270Y559540D01*
X304192Y559501D01*
X304112Y559465D01*
X304031Y559432D01*
X303949Y559403D01*
X303865Y559378D01*
X303780Y559357D01*
X303695Y559339D01*
X303608Y559326D01*
X303522Y559316D01*
X303434Y559310D01*
X303347Y559308D01*
X300101Y559308D01*
X300101Y567097D01*
X294490Y570992D02*
X294490Y559308D01*
X294490Y570992D02*
X289298Y570992D01*
X289298Y565799D02*
X294490Y565799D01*
X857899Y660908D02*
X860496Y660908D01*
X860595Y660910D01*
X860695Y660916D01*
X860794Y660925D01*
X860892Y660938D01*
X860990Y660955D01*
X861088Y660976D01*
X861184Y661001D01*
X861279Y661029D01*
X861373Y661061D01*
X861466Y661096D01*
X861558Y661135D01*
X861648Y661178D01*
X861736Y661223D01*
X861823Y661273D01*
X861907Y661325D01*
X861990Y661381D01*
X862070Y661439D01*
X862148Y661501D01*
X862223Y661566D01*
X862296Y661634D01*
X862366Y661704D01*
X862434Y661777D01*
X862499Y661852D01*
X862561Y661930D01*
X862619Y662010D01*
X862675Y662093D01*
X862727Y662177D01*
X862777Y662264D01*
X862822Y662352D01*
X862865Y662442D01*
X862904Y662534D01*
X862939Y662627D01*
X862971Y662721D01*
X862999Y662816D01*
X863024Y662912D01*
X863045Y663010D01*
X863062Y663108D01*
X863075Y663206D01*
X863084Y663305D01*
X863090Y663405D01*
X863092Y663504D01*
X863092Y669996D01*
X863090Y670095D01*
X863084Y670195D01*
X863075Y670294D01*
X863062Y670392D01*
X863045Y670490D01*
X863024Y670588D01*
X862999Y670684D01*
X862971Y670779D01*
X862939Y670873D01*
X862904Y670966D01*
X862865Y671058D01*
X862822Y671148D01*
X862777Y671236D01*
X862727Y671323D01*
X862675Y671407D01*
X862619Y671490D01*
X862561Y671570D01*
X862499Y671648D01*
X862434Y671723D01*
X862366Y671796D01*
X862296Y671866D01*
X862223Y671934D01*
X862148Y671999D01*
X862070Y672061D01*
X861990Y672119D01*
X861907Y672175D01*
X861823Y672227D01*
X861736Y672277D01*
X861648Y672322D01*
X861558Y672365D01*
X861466Y672404D01*
X861373Y672439D01*
X861279Y672471D01*
X861184Y672499D01*
X861088Y672524D01*
X860990Y672545D01*
X860892Y672562D01*
X860794Y672575D01*
X860695Y672584D01*
X860595Y672590D01*
X860496Y672592D01*
X857899Y672592D01*
X853534Y664154D02*
X853532Y664267D01*
X853526Y664380D01*
X853516Y664493D01*
X853502Y664606D01*
X853485Y664718D01*
X853463Y664829D01*
X853438Y664939D01*
X853408Y665049D01*
X853375Y665157D01*
X853338Y665264D01*
X853298Y665370D01*
X853253Y665474D01*
X853205Y665577D01*
X853154Y665678D01*
X853099Y665777D01*
X853041Y665874D01*
X852979Y665969D01*
X852914Y666062D01*
X852846Y666152D01*
X852775Y666240D01*
X852700Y666326D01*
X852623Y666409D01*
X852543Y666489D01*
X852460Y666566D01*
X852374Y666641D01*
X852286Y666712D01*
X852196Y666780D01*
X852103Y666845D01*
X852008Y666907D01*
X851911Y666965D01*
X851812Y667020D01*
X851711Y667071D01*
X851608Y667119D01*
X851504Y667164D01*
X851398Y667204D01*
X851291Y667241D01*
X851183Y667274D01*
X851073Y667304D01*
X850963Y667329D01*
X850852Y667351D01*
X850740Y667368D01*
X850627Y667382D01*
X850514Y667392D01*
X850401Y667398D01*
X850288Y667400D01*
X850175Y667398D01*
X850062Y667392D01*
X849949Y667382D01*
X849836Y667368D01*
X849724Y667351D01*
X849613Y667329D01*
X849503Y667304D01*
X849393Y667274D01*
X849285Y667241D01*
X849178Y667204D01*
X849072Y667164D01*
X848968Y667119D01*
X848865Y667071D01*
X848764Y667020D01*
X848665Y666965D01*
X848568Y666907D01*
X848473Y666845D01*
X848380Y666780D01*
X848290Y666712D01*
X848202Y666641D01*
X848116Y666566D01*
X848033Y666489D01*
X847953Y666409D01*
X847876Y666326D01*
X847801Y666240D01*
X847730Y666152D01*
X847662Y666062D01*
X847597Y665969D01*
X847535Y665874D01*
X847477Y665777D01*
X847422Y665678D01*
X847371Y665577D01*
X847323Y665474D01*
X847278Y665370D01*
X847238Y665264D01*
X847201Y665157D01*
X847168Y665049D01*
X847138Y664939D01*
X847113Y664829D01*
X847091Y664718D01*
X847074Y664606D01*
X847060Y664493D01*
X847050Y664380D01*
X847044Y664267D01*
X847042Y664154D01*
X847044Y664041D01*
X847050Y663928D01*
X847060Y663815D01*
X847074Y663702D01*
X847091Y663590D01*
X847113Y663479D01*
X847138Y663369D01*
X847168Y663259D01*
X847201Y663151D01*
X847238Y663044D01*
X847278Y662938D01*
X847323Y662834D01*
X847371Y662731D01*
X847422Y662630D01*
X847477Y662531D01*
X847535Y662434D01*
X847597Y662339D01*
X847662Y662246D01*
X847730Y662156D01*
X847801Y662068D01*
X847876Y661982D01*
X847953Y661899D01*
X848033Y661819D01*
X848116Y661742D01*
X848202Y661667D01*
X848290Y661596D01*
X848380Y661528D01*
X848473Y661463D01*
X848568Y661401D01*
X848665Y661343D01*
X848764Y661288D01*
X848865Y661237D01*
X848968Y661189D01*
X849072Y661144D01*
X849178Y661104D01*
X849285Y661067D01*
X849393Y661034D01*
X849503Y661004D01*
X849613Y660979D01*
X849724Y660957D01*
X849836Y660940D01*
X849949Y660926D01*
X850062Y660916D01*
X850175Y660910D01*
X850288Y660908D01*
X850401Y660910D01*
X850514Y660916D01*
X850627Y660926D01*
X850740Y660940D01*
X850852Y660957D01*
X850963Y660979D01*
X851073Y661004D01*
X851183Y661034D01*
X851291Y661067D01*
X851398Y661104D01*
X851504Y661144D01*
X851608Y661189D01*
X851711Y661237D01*
X851812Y661288D01*
X851911Y661343D01*
X852008Y661401D01*
X852103Y661463D01*
X852196Y661528D01*
X852286Y661596D01*
X852374Y661667D01*
X852460Y661742D01*
X852543Y661819D01*
X852623Y661899D01*
X852700Y661982D01*
X852775Y662068D01*
X852846Y662156D01*
X852914Y662246D01*
X852979Y662339D01*
X853041Y662434D01*
X853099Y662531D01*
X853154Y662630D01*
X853205Y662731D01*
X853253Y662834D01*
X853298Y662938D01*
X853338Y663044D01*
X853375Y663151D01*
X853408Y663259D01*
X853438Y663369D01*
X853463Y663479D01*
X853485Y663590D01*
X853502Y663702D01*
X853516Y663815D01*
X853526Y663928D01*
X853532Y664041D01*
X853534Y664154D01*
X852884Y669996D02*
X852882Y670097D01*
X852876Y670197D01*
X852866Y670297D01*
X852853Y670397D01*
X852835Y670496D01*
X852814Y670595D01*
X852789Y670692D01*
X852760Y670789D01*
X852727Y670884D01*
X852691Y670978D01*
X852651Y671070D01*
X852608Y671161D01*
X852561Y671250D01*
X852511Y671337D01*
X852457Y671423D01*
X852400Y671506D01*
X852340Y671586D01*
X852277Y671665D01*
X852210Y671741D01*
X852141Y671814D01*
X852069Y671884D01*
X851995Y671952D01*
X851918Y672017D01*
X851838Y672078D01*
X851756Y672137D01*
X851672Y672192D01*
X851586Y672244D01*
X851498Y672293D01*
X851408Y672338D01*
X851316Y672380D01*
X851223Y672418D01*
X851128Y672452D01*
X851033Y672483D01*
X850936Y672510D01*
X850838Y672533D01*
X850739Y672553D01*
X850639Y672568D01*
X850539Y672580D01*
X850439Y672588D01*
X850338Y672592D01*
X850238Y672592D01*
X850137Y672588D01*
X850037Y672580D01*
X849937Y672568D01*
X849837Y672553D01*
X849738Y672533D01*
X849640Y672510D01*
X849543Y672483D01*
X849448Y672452D01*
X849353Y672418D01*
X849260Y672380D01*
X849168Y672338D01*
X849078Y672293D01*
X848990Y672244D01*
X848904Y672192D01*
X848820Y672137D01*
X848738Y672078D01*
X848658Y672017D01*
X848581Y671952D01*
X848507Y671884D01*
X848435Y671814D01*
X848366Y671741D01*
X848299Y671665D01*
X848236Y671586D01*
X848176Y671506D01*
X848119Y671423D01*
X848065Y671337D01*
X848015Y671250D01*
X847968Y671161D01*
X847925Y671070D01*
X847885Y670978D01*
X847849Y670884D01*
X847816Y670789D01*
X847787Y670692D01*
X847762Y670595D01*
X847741Y670496D01*
X847723Y670397D01*
X847710Y670297D01*
X847700Y670197D01*
X847694Y670097D01*
X847692Y669996D01*
X847694Y669895D01*
X847700Y669795D01*
X847710Y669695D01*
X847723Y669595D01*
X847741Y669496D01*
X847762Y669397D01*
X847787Y669300D01*
X847816Y669203D01*
X847849Y669108D01*
X847885Y669014D01*
X847925Y668922D01*
X847968Y668831D01*
X848015Y668742D01*
X848065Y668655D01*
X848119Y668569D01*
X848176Y668486D01*
X848236Y668406D01*
X848299Y668327D01*
X848366Y668251D01*
X848435Y668178D01*
X848507Y668108D01*
X848581Y668040D01*
X848658Y667975D01*
X848738Y667914D01*
X848820Y667855D01*
X848904Y667800D01*
X848990Y667748D01*
X849078Y667699D01*
X849168Y667654D01*
X849260Y667612D01*
X849353Y667574D01*
X849448Y667540D01*
X849543Y667509D01*
X849640Y667482D01*
X849738Y667459D01*
X849837Y667439D01*
X849937Y667424D01*
X850037Y667412D01*
X850137Y667404D01*
X850238Y667400D01*
X850338Y667400D01*
X850439Y667404D01*
X850539Y667412D01*
X850639Y667424D01*
X850739Y667439D01*
X850838Y667459D01*
X850936Y667482D01*
X851033Y667509D01*
X851128Y667540D01*
X851223Y667574D01*
X851316Y667612D01*
X851408Y667654D01*
X851498Y667699D01*
X851586Y667748D01*
X851672Y667800D01*
X851756Y667855D01*
X851838Y667914D01*
X851918Y667975D01*
X851995Y668040D01*
X852069Y668108D01*
X852141Y668178D01*
X852210Y668251D01*
X852277Y668327D01*
X852340Y668406D01*
X852400Y668486D01*
X852457Y668569D01*
X852511Y668655D01*
X852561Y668742D01*
X852608Y668831D01*
X852651Y668922D01*
X852691Y669014D01*
X852727Y669108D01*
X852760Y669203D01*
X852789Y669300D01*
X852814Y669397D01*
X852835Y669496D01*
X852853Y669595D01*
X852866Y669695D01*
X852876Y669795D01*
X852882Y669895D01*
X852884Y669996D01*
X859846Y634492D02*
X863092Y631896D01*
X859846Y634492D02*
X859846Y622808D01*
X856601Y622808D02*
X863092Y622808D01*
X851663Y628650D02*
X851660Y628880D01*
X851652Y629110D01*
X851638Y629339D01*
X851619Y629568D01*
X851594Y629797D01*
X851564Y630025D01*
X851529Y630252D01*
X851488Y630478D01*
X851442Y630703D01*
X851390Y630927D01*
X851333Y631150D01*
X851271Y631371D01*
X851203Y631591D01*
X851130Y631809D01*
X851052Y632025D01*
X850969Y632239D01*
X850881Y632452D01*
X850788Y632662D01*
X850689Y632869D01*
X850656Y632959D01*
X850620Y633048D01*
X850580Y633136D01*
X850536Y633221D01*
X850489Y633305D01*
X850439Y633387D01*
X850385Y633467D01*
X850329Y633544D01*
X850269Y633620D01*
X850206Y633693D01*
X850141Y633763D01*
X850072Y633831D01*
X850001Y633895D01*
X849928Y633957D01*
X849852Y634016D01*
X849774Y634072D01*
X849693Y634125D01*
X849611Y634174D01*
X849527Y634220D01*
X849440Y634263D01*
X849353Y634302D01*
X849263Y634338D01*
X849173Y634370D01*
X849081Y634398D01*
X848988Y634423D01*
X848894Y634444D01*
X848800Y634461D01*
X848705Y634475D01*
X848609Y634484D01*
X848513Y634490D01*
X848417Y634492D01*
X848321Y634490D01*
X848225Y634484D01*
X848129Y634475D01*
X848034Y634461D01*
X847940Y634444D01*
X847846Y634423D01*
X847753Y634398D01*
X847661Y634370D01*
X847571Y634338D01*
X847481Y634302D01*
X847394Y634263D01*
X847307Y634220D01*
X847223Y634174D01*
X847141Y634125D01*
X847060Y634072D01*
X846982Y634016D01*
X846906Y633957D01*
X846833Y633895D01*
X846762Y633831D01*
X846693Y633763D01*
X846628Y633693D01*
X846565Y633620D01*
X846505Y633545D01*
X846449Y633467D01*
X846395Y633387D01*
X846345Y633305D01*
X846298Y633221D01*
X846255Y633136D01*
X846214Y633048D01*
X846178Y632959D01*
X846145Y632869D01*
X846046Y632661D01*
X845953Y632451D01*
X845865Y632239D01*
X845782Y632025D01*
X845704Y631808D01*
X845631Y631590D01*
X845563Y631371D01*
X845501Y631149D01*
X845444Y630927D01*
X845392Y630703D01*
X845346Y630478D01*
X845305Y630252D01*
X845270Y630024D01*
X845240Y629797D01*
X845215Y629568D01*
X845196Y629339D01*
X845182Y629110D01*
X845174Y628880D01*
X845171Y628650D01*
X851662Y628650D02*
X851659Y628420D01*
X851651Y628190D01*
X851637Y627961D01*
X851618Y627732D01*
X851593Y627503D01*
X851563Y627275D01*
X851528Y627048D01*
X851487Y626822D01*
X851441Y626597D01*
X851389Y626373D01*
X851332Y626150D01*
X851270Y625929D01*
X851202Y625709D01*
X851129Y625491D01*
X851051Y625275D01*
X850968Y625061D01*
X850880Y624849D01*
X850787Y624638D01*
X850688Y624431D01*
X850689Y624431D02*
X850656Y624341D01*
X850620Y624252D01*
X850579Y624164D01*
X850536Y624079D01*
X850489Y623995D01*
X850439Y623913D01*
X850385Y623833D01*
X850329Y623756D01*
X850269Y623680D01*
X850206Y623607D01*
X850141Y623537D01*
X850072Y623469D01*
X850001Y623405D01*
X849928Y623343D01*
X849852Y623284D01*
X849774Y623228D01*
X849693Y623175D01*
X849611Y623126D01*
X849527Y623080D01*
X849440Y623037D01*
X849353Y622998D01*
X849263Y622962D01*
X849173Y622930D01*
X849081Y622902D01*
X848988Y622877D01*
X848894Y622856D01*
X848800Y622839D01*
X848705Y622825D01*
X848609Y622816D01*
X848513Y622810D01*
X848417Y622808D01*
X846145Y624431D02*
X846046Y624638D01*
X845953Y624849D01*
X845865Y625061D01*
X845782Y625275D01*
X845704Y625491D01*
X845631Y625709D01*
X845563Y625929D01*
X845501Y626150D01*
X845444Y626373D01*
X845392Y626597D01*
X845346Y626822D01*
X845305Y627048D01*
X845270Y627275D01*
X845240Y627503D01*
X845215Y627732D01*
X845196Y627961D01*
X845182Y628190D01*
X845174Y628420D01*
X845171Y628650D01*
X846145Y624431D02*
X846178Y624341D01*
X846214Y624252D01*
X846255Y624164D01*
X846298Y624079D01*
X846345Y623995D01*
X846395Y623913D01*
X846449Y623833D01*
X846505Y623755D01*
X846565Y623680D01*
X846628Y623607D01*
X846693Y623537D01*
X846762Y623469D01*
X846833Y623405D01*
X846906Y623343D01*
X846982Y623284D01*
X847060Y623228D01*
X847141Y623175D01*
X847223Y623126D01*
X847307Y623080D01*
X847394Y623037D01*
X847481Y622998D01*
X847571Y622962D01*
X847661Y622930D01*
X847753Y622902D01*
X847846Y622877D01*
X847940Y622856D01*
X848034Y622839D01*
X848129Y622825D01*
X848225Y622816D01*
X848321Y622810D01*
X848417Y622808D01*
X851013Y625404D02*
X845820Y631896D01*
X840233Y628650D02*
X840230Y628880D01*
X840222Y629110D01*
X840208Y629339D01*
X840189Y629568D01*
X840164Y629797D01*
X840134Y630025D01*
X840099Y630252D01*
X840058Y630478D01*
X840012Y630703D01*
X839960Y630927D01*
X839903Y631150D01*
X839841Y631371D01*
X839773Y631591D01*
X839700Y631809D01*
X839622Y632025D01*
X839539Y632239D01*
X839451Y632452D01*
X839358Y632662D01*
X839259Y632869D01*
X839226Y632959D01*
X839190Y633048D01*
X839150Y633136D01*
X839106Y633221D01*
X839059Y633305D01*
X839009Y633387D01*
X838955Y633467D01*
X838899Y633544D01*
X838839Y633620D01*
X838776Y633693D01*
X838711Y633763D01*
X838642Y633831D01*
X838571Y633895D01*
X838498Y633957D01*
X838422Y634016D01*
X838344Y634072D01*
X838263Y634125D01*
X838181Y634174D01*
X838097Y634220D01*
X838010Y634263D01*
X837923Y634302D01*
X837833Y634338D01*
X837743Y634370D01*
X837651Y634398D01*
X837558Y634423D01*
X837464Y634444D01*
X837370Y634461D01*
X837275Y634475D01*
X837179Y634484D01*
X837083Y634490D01*
X836987Y634492D01*
X836891Y634490D01*
X836795Y634484D01*
X836699Y634475D01*
X836604Y634461D01*
X836510Y634444D01*
X836416Y634423D01*
X836323Y634398D01*
X836231Y634370D01*
X836141Y634338D01*
X836051Y634302D01*
X835964Y634263D01*
X835877Y634220D01*
X835793Y634174D01*
X835711Y634125D01*
X835630Y634072D01*
X835552Y634016D01*
X835476Y633957D01*
X835403Y633895D01*
X835332Y633831D01*
X835263Y633763D01*
X835198Y633693D01*
X835135Y633620D01*
X835075Y633545D01*
X835019Y633467D01*
X834965Y633387D01*
X834915Y633305D01*
X834868Y633221D01*
X834825Y633136D01*
X834784Y633048D01*
X834748Y632959D01*
X834715Y632869D01*
X834616Y632661D01*
X834523Y632451D01*
X834435Y632239D01*
X834352Y632025D01*
X834274Y631808D01*
X834201Y631590D01*
X834133Y631371D01*
X834071Y631149D01*
X834014Y630927D01*
X833962Y630703D01*
X833916Y630478D01*
X833875Y630252D01*
X833840Y630024D01*
X833810Y629797D01*
X833785Y629568D01*
X833766Y629339D01*
X833752Y629110D01*
X833744Y628880D01*
X833741Y628650D01*
X840232Y628650D02*
X840229Y628420D01*
X840221Y628190D01*
X840207Y627961D01*
X840188Y627732D01*
X840163Y627503D01*
X840133Y627275D01*
X840098Y627048D01*
X840057Y626822D01*
X840011Y626597D01*
X839959Y626373D01*
X839902Y626150D01*
X839840Y625929D01*
X839772Y625709D01*
X839699Y625491D01*
X839621Y625275D01*
X839538Y625061D01*
X839450Y624849D01*
X839357Y624638D01*
X839258Y624431D01*
X839259Y624431D02*
X839226Y624341D01*
X839190Y624252D01*
X839149Y624164D01*
X839106Y624079D01*
X839059Y623995D01*
X839009Y623913D01*
X838955Y623833D01*
X838899Y623756D01*
X838839Y623680D01*
X838776Y623607D01*
X838711Y623537D01*
X838642Y623469D01*
X838571Y623405D01*
X838498Y623343D01*
X838422Y623284D01*
X838344Y623228D01*
X838263Y623175D01*
X838181Y623126D01*
X838097Y623080D01*
X838010Y623037D01*
X837923Y622998D01*
X837833Y622962D01*
X837743Y622930D01*
X837651Y622902D01*
X837558Y622877D01*
X837464Y622856D01*
X837370Y622839D01*
X837275Y622825D01*
X837179Y622816D01*
X837083Y622810D01*
X836987Y622808D01*
X834715Y624431D02*
X834616Y624638D01*
X834523Y624849D01*
X834435Y625061D01*
X834352Y625275D01*
X834274Y625491D01*
X834201Y625709D01*
X834133Y625929D01*
X834071Y626150D01*
X834014Y626373D01*
X833962Y626597D01*
X833916Y626822D01*
X833875Y627048D01*
X833840Y627275D01*
X833810Y627503D01*
X833785Y627732D01*
X833766Y627961D01*
X833752Y628190D01*
X833744Y628420D01*
X833741Y628650D01*
X834715Y624431D02*
X834748Y624341D01*
X834784Y624252D01*
X834825Y624164D01*
X834868Y624079D01*
X834915Y623995D01*
X834965Y623913D01*
X835019Y623833D01*
X835075Y623755D01*
X835135Y623680D01*
X835198Y623607D01*
X835263Y623537D01*
X835332Y623469D01*
X835403Y623405D01*
X835476Y623343D01*
X835552Y623284D01*
X835630Y623228D01*
X835711Y623175D01*
X835793Y623126D01*
X835877Y623080D01*
X835964Y623037D01*
X836051Y622998D01*
X836141Y622962D01*
X836231Y622930D01*
X836323Y622902D01*
X836416Y622877D01*
X836510Y622856D01*
X836604Y622839D01*
X836699Y622825D01*
X836795Y622816D01*
X836891Y622810D01*
X836987Y622808D01*
X839583Y625404D02*
X834390Y631896D01*
X828534Y630597D02*
X828534Y622808D01*
X828534Y630597D02*
X825288Y630597D01*
X825201Y630595D01*
X825113Y630589D01*
X825027Y630579D01*
X824940Y630566D01*
X824855Y630548D01*
X824770Y630527D01*
X824686Y630502D01*
X824604Y630473D01*
X824523Y630440D01*
X824443Y630404D01*
X824365Y630365D01*
X824289Y630321D01*
X824215Y630275D01*
X824144Y630225D01*
X824074Y630172D01*
X824007Y630116D01*
X823943Y630057D01*
X823881Y629996D01*
X823822Y629931D01*
X823766Y629864D01*
X823713Y629794D01*
X823663Y629723D01*
X823617Y629649D01*
X823574Y629573D01*
X823534Y629495D01*
X823498Y629415D01*
X823465Y629334D01*
X823436Y629252D01*
X823411Y629168D01*
X823390Y629083D01*
X823372Y628998D01*
X823359Y628911D01*
X823349Y628825D01*
X823343Y628737D01*
X823341Y628650D01*
X823341Y622808D01*
X817731Y622808D02*
X817731Y634492D01*
X812538Y634492D01*
X812538Y629299D02*
X817731Y629299D01*
X857899Y724408D02*
X860496Y724408D01*
X860595Y724410D01*
X860695Y724416D01*
X860794Y724425D01*
X860892Y724438D01*
X860990Y724455D01*
X861088Y724476D01*
X861184Y724501D01*
X861279Y724529D01*
X861373Y724561D01*
X861466Y724596D01*
X861558Y724635D01*
X861648Y724678D01*
X861736Y724723D01*
X861823Y724773D01*
X861907Y724825D01*
X861990Y724881D01*
X862070Y724939D01*
X862148Y725001D01*
X862223Y725066D01*
X862296Y725134D01*
X862366Y725204D01*
X862434Y725277D01*
X862499Y725352D01*
X862561Y725430D01*
X862619Y725510D01*
X862675Y725593D01*
X862727Y725677D01*
X862777Y725764D01*
X862822Y725852D01*
X862865Y725942D01*
X862904Y726034D01*
X862939Y726127D01*
X862971Y726221D01*
X862999Y726316D01*
X863024Y726412D01*
X863045Y726510D01*
X863062Y726608D01*
X863075Y726706D01*
X863084Y726805D01*
X863090Y726905D01*
X863092Y727004D01*
X863092Y733496D01*
X863090Y733595D01*
X863084Y733695D01*
X863075Y733794D01*
X863062Y733892D01*
X863045Y733990D01*
X863024Y734088D01*
X862999Y734184D01*
X862971Y734279D01*
X862939Y734373D01*
X862904Y734466D01*
X862865Y734558D01*
X862822Y734648D01*
X862777Y734736D01*
X862727Y734823D01*
X862675Y734907D01*
X862619Y734990D01*
X862561Y735070D01*
X862499Y735148D01*
X862434Y735223D01*
X862366Y735296D01*
X862296Y735366D01*
X862223Y735434D01*
X862148Y735499D01*
X862070Y735561D01*
X861990Y735619D01*
X861907Y735675D01*
X861823Y735727D01*
X861736Y735777D01*
X861648Y735822D01*
X861558Y735865D01*
X861466Y735904D01*
X861373Y735939D01*
X861279Y735971D01*
X861184Y735999D01*
X861088Y736024D01*
X860990Y736045D01*
X860892Y736062D01*
X860794Y736075D01*
X860695Y736084D01*
X860595Y736090D01*
X860496Y736092D01*
X857899Y736092D01*
X853534Y733496D02*
X850288Y736092D01*
X850288Y724408D01*
X847043Y724408D02*
X853534Y724408D01*
X842104Y730250D02*
X842101Y730480D01*
X842093Y730710D01*
X842079Y730939D01*
X842060Y731168D01*
X842035Y731397D01*
X842005Y731625D01*
X841970Y731852D01*
X841929Y732078D01*
X841883Y732303D01*
X841831Y732527D01*
X841774Y732750D01*
X841712Y732971D01*
X841644Y733191D01*
X841571Y733409D01*
X841493Y733625D01*
X841410Y733839D01*
X841322Y734052D01*
X841229Y734262D01*
X841130Y734469D01*
X841097Y734559D01*
X841061Y734648D01*
X841021Y734736D01*
X840977Y734821D01*
X840930Y734905D01*
X840880Y734987D01*
X840826Y735067D01*
X840770Y735144D01*
X840710Y735220D01*
X840647Y735293D01*
X840582Y735363D01*
X840513Y735431D01*
X840442Y735495D01*
X840369Y735557D01*
X840293Y735616D01*
X840215Y735672D01*
X840134Y735725D01*
X840052Y735774D01*
X839968Y735820D01*
X839881Y735863D01*
X839794Y735902D01*
X839704Y735938D01*
X839614Y735970D01*
X839522Y735998D01*
X839429Y736023D01*
X839335Y736044D01*
X839241Y736061D01*
X839146Y736075D01*
X839050Y736084D01*
X838954Y736090D01*
X838858Y736092D01*
X838762Y736090D01*
X838666Y736084D01*
X838570Y736075D01*
X838475Y736061D01*
X838381Y736044D01*
X838287Y736023D01*
X838194Y735998D01*
X838102Y735970D01*
X838012Y735938D01*
X837922Y735902D01*
X837835Y735863D01*
X837748Y735820D01*
X837664Y735774D01*
X837582Y735725D01*
X837501Y735672D01*
X837423Y735616D01*
X837347Y735557D01*
X837274Y735495D01*
X837203Y735431D01*
X837134Y735363D01*
X837069Y735293D01*
X837006Y735220D01*
X836946Y735145D01*
X836890Y735067D01*
X836836Y734987D01*
X836786Y734905D01*
X836739Y734821D01*
X836696Y734736D01*
X836655Y734648D01*
X836619Y734559D01*
X836586Y734469D01*
X836587Y734469D02*
X836488Y734261D01*
X836395Y734051D01*
X836307Y733839D01*
X836224Y733625D01*
X836146Y733408D01*
X836073Y733190D01*
X836005Y732971D01*
X835943Y732749D01*
X835886Y732527D01*
X835834Y732303D01*
X835788Y732078D01*
X835747Y731852D01*
X835712Y731624D01*
X835682Y731397D01*
X835657Y731168D01*
X835638Y730939D01*
X835624Y730710D01*
X835616Y730480D01*
X835613Y730250D01*
X842104Y730250D02*
X842101Y730020D01*
X842093Y729790D01*
X842079Y729561D01*
X842060Y729332D01*
X842035Y729103D01*
X842005Y728875D01*
X841970Y728648D01*
X841929Y728422D01*
X841883Y728197D01*
X841831Y727973D01*
X841774Y727750D01*
X841712Y727529D01*
X841644Y727309D01*
X841571Y727091D01*
X841493Y726875D01*
X841410Y726661D01*
X841322Y726449D01*
X841229Y726238D01*
X841130Y726031D01*
X841097Y725941D01*
X841061Y725852D01*
X841020Y725764D01*
X840977Y725679D01*
X840930Y725595D01*
X840880Y725513D01*
X840826Y725433D01*
X840770Y725356D01*
X840710Y725280D01*
X840647Y725207D01*
X840582Y725137D01*
X840513Y725069D01*
X840442Y725005D01*
X840369Y724943D01*
X840293Y724884D01*
X840215Y724828D01*
X840134Y724775D01*
X840052Y724726D01*
X839968Y724680D01*
X839881Y724637D01*
X839794Y724598D01*
X839704Y724562D01*
X839614Y724530D01*
X839522Y724502D01*
X839429Y724477D01*
X839335Y724456D01*
X839241Y724439D01*
X839146Y724425D01*
X839050Y724416D01*
X838954Y724410D01*
X838858Y724408D01*
X836586Y726031D02*
X836487Y726238D01*
X836394Y726449D01*
X836306Y726661D01*
X836223Y726875D01*
X836145Y727091D01*
X836072Y727309D01*
X836004Y727529D01*
X835942Y727750D01*
X835885Y727973D01*
X835833Y728197D01*
X835787Y728422D01*
X835746Y728648D01*
X835711Y728875D01*
X835681Y729103D01*
X835656Y729332D01*
X835637Y729561D01*
X835623Y729790D01*
X835615Y730020D01*
X835612Y730250D01*
X836586Y726031D02*
X836619Y725941D01*
X836655Y725852D01*
X836696Y725764D01*
X836739Y725679D01*
X836786Y725595D01*
X836836Y725513D01*
X836890Y725433D01*
X836946Y725355D01*
X837006Y725280D01*
X837069Y725207D01*
X837134Y725137D01*
X837203Y725069D01*
X837274Y725005D01*
X837347Y724943D01*
X837423Y724884D01*
X837501Y724828D01*
X837582Y724775D01*
X837664Y724726D01*
X837748Y724680D01*
X837835Y724637D01*
X837922Y724598D01*
X838012Y724562D01*
X838102Y724530D01*
X838194Y724502D01*
X838287Y724477D01*
X838381Y724456D01*
X838475Y724439D01*
X838570Y724425D01*
X838666Y724416D01*
X838762Y724410D01*
X838858Y724408D01*
X841455Y727004D02*
X836262Y733496D01*
X859846Y697992D02*
X863092Y695396D01*
X859846Y697992D02*
X859846Y686308D01*
X856601Y686308D02*
X863092Y686308D01*
X851663Y692150D02*
X851660Y692380D01*
X851652Y692610D01*
X851638Y692839D01*
X851619Y693068D01*
X851594Y693297D01*
X851564Y693525D01*
X851529Y693752D01*
X851488Y693978D01*
X851442Y694203D01*
X851390Y694427D01*
X851333Y694650D01*
X851271Y694871D01*
X851203Y695091D01*
X851130Y695309D01*
X851052Y695525D01*
X850969Y695739D01*
X850881Y695952D01*
X850788Y696162D01*
X850689Y696369D01*
X850656Y696459D01*
X850620Y696548D01*
X850580Y696636D01*
X850536Y696721D01*
X850489Y696805D01*
X850439Y696887D01*
X850385Y696967D01*
X850329Y697044D01*
X850269Y697120D01*
X850206Y697193D01*
X850141Y697263D01*
X850072Y697331D01*
X850001Y697395D01*
X849928Y697457D01*
X849852Y697516D01*
X849774Y697572D01*
X849693Y697625D01*
X849611Y697674D01*
X849527Y697720D01*
X849440Y697763D01*
X849353Y697802D01*
X849263Y697838D01*
X849173Y697870D01*
X849081Y697898D01*
X848988Y697923D01*
X848894Y697944D01*
X848800Y697961D01*
X848705Y697975D01*
X848609Y697984D01*
X848513Y697990D01*
X848417Y697992D01*
X848321Y697990D01*
X848225Y697984D01*
X848129Y697975D01*
X848034Y697961D01*
X847940Y697944D01*
X847846Y697923D01*
X847753Y697898D01*
X847661Y697870D01*
X847571Y697838D01*
X847481Y697802D01*
X847394Y697763D01*
X847307Y697720D01*
X847223Y697674D01*
X847141Y697625D01*
X847060Y697572D01*
X846982Y697516D01*
X846906Y697457D01*
X846833Y697395D01*
X846762Y697331D01*
X846693Y697263D01*
X846628Y697193D01*
X846565Y697120D01*
X846505Y697045D01*
X846449Y696967D01*
X846395Y696887D01*
X846345Y696805D01*
X846298Y696721D01*
X846255Y696636D01*
X846214Y696548D01*
X846178Y696459D01*
X846145Y696369D01*
X846046Y696161D01*
X845953Y695951D01*
X845865Y695739D01*
X845782Y695525D01*
X845704Y695308D01*
X845631Y695090D01*
X845563Y694871D01*
X845501Y694649D01*
X845444Y694427D01*
X845392Y694203D01*
X845346Y693978D01*
X845305Y693752D01*
X845270Y693524D01*
X845240Y693297D01*
X845215Y693068D01*
X845196Y692839D01*
X845182Y692610D01*
X845174Y692380D01*
X845171Y692150D01*
X851662Y692150D02*
X851659Y691920D01*
X851651Y691690D01*
X851637Y691461D01*
X851618Y691232D01*
X851593Y691003D01*
X851563Y690775D01*
X851528Y690548D01*
X851487Y690322D01*
X851441Y690097D01*
X851389Y689873D01*
X851332Y689650D01*
X851270Y689429D01*
X851202Y689209D01*
X851129Y688991D01*
X851051Y688775D01*
X850968Y688561D01*
X850880Y688349D01*
X850787Y688138D01*
X850688Y687931D01*
X850689Y687931D02*
X850656Y687841D01*
X850620Y687752D01*
X850579Y687664D01*
X850536Y687579D01*
X850489Y687495D01*
X850439Y687413D01*
X850385Y687333D01*
X850329Y687256D01*
X850269Y687180D01*
X850206Y687107D01*
X850141Y687037D01*
X850072Y686969D01*
X850001Y686905D01*
X849928Y686843D01*
X849852Y686784D01*
X849774Y686728D01*
X849693Y686675D01*
X849611Y686626D01*
X849527Y686580D01*
X849440Y686537D01*
X849353Y686498D01*
X849263Y686462D01*
X849173Y686430D01*
X849081Y686402D01*
X848988Y686377D01*
X848894Y686356D01*
X848800Y686339D01*
X848705Y686325D01*
X848609Y686316D01*
X848513Y686310D01*
X848417Y686308D01*
X846145Y687931D02*
X846046Y688138D01*
X845953Y688349D01*
X845865Y688561D01*
X845782Y688775D01*
X845704Y688991D01*
X845631Y689209D01*
X845563Y689429D01*
X845501Y689650D01*
X845444Y689873D01*
X845392Y690097D01*
X845346Y690322D01*
X845305Y690548D01*
X845270Y690775D01*
X845240Y691003D01*
X845215Y691232D01*
X845196Y691461D01*
X845182Y691690D01*
X845174Y691920D01*
X845171Y692150D01*
X846145Y687931D02*
X846178Y687841D01*
X846214Y687752D01*
X846255Y687664D01*
X846298Y687579D01*
X846345Y687495D01*
X846395Y687413D01*
X846449Y687333D01*
X846505Y687255D01*
X846565Y687180D01*
X846628Y687107D01*
X846693Y687037D01*
X846762Y686969D01*
X846833Y686905D01*
X846906Y686843D01*
X846982Y686784D01*
X847060Y686728D01*
X847141Y686675D01*
X847223Y686626D01*
X847307Y686580D01*
X847394Y686537D01*
X847481Y686498D01*
X847571Y686462D01*
X847661Y686430D01*
X847753Y686402D01*
X847846Y686377D01*
X847940Y686356D01*
X848034Y686339D01*
X848129Y686325D01*
X848225Y686316D01*
X848321Y686310D01*
X848417Y686308D01*
X851013Y688904D02*
X845820Y695396D01*
X840233Y692150D02*
X840230Y692380D01*
X840222Y692610D01*
X840208Y692839D01*
X840189Y693068D01*
X840164Y693297D01*
X840134Y693525D01*
X840099Y693752D01*
X840058Y693978D01*
X840012Y694203D01*
X839960Y694427D01*
X839903Y694650D01*
X839841Y694871D01*
X839773Y695091D01*
X839700Y695309D01*
X839622Y695525D01*
X839539Y695739D01*
X839451Y695952D01*
X839358Y696162D01*
X839259Y696369D01*
X839226Y696459D01*
X839190Y696548D01*
X839150Y696636D01*
X839106Y696721D01*
X839059Y696805D01*
X839009Y696887D01*
X838955Y696967D01*
X838899Y697044D01*
X838839Y697120D01*
X838776Y697193D01*
X838711Y697263D01*
X838642Y697331D01*
X838571Y697395D01*
X838498Y697457D01*
X838422Y697516D01*
X838344Y697572D01*
X838263Y697625D01*
X838181Y697674D01*
X838097Y697720D01*
X838010Y697763D01*
X837923Y697802D01*
X837833Y697838D01*
X837743Y697870D01*
X837651Y697898D01*
X837558Y697923D01*
X837464Y697944D01*
X837370Y697961D01*
X837275Y697975D01*
X837179Y697984D01*
X837083Y697990D01*
X836987Y697992D01*
X836891Y697990D01*
X836795Y697984D01*
X836699Y697975D01*
X836604Y697961D01*
X836510Y697944D01*
X836416Y697923D01*
X836323Y697898D01*
X836231Y697870D01*
X836141Y697838D01*
X836051Y697802D01*
X835964Y697763D01*
X835877Y697720D01*
X835793Y697674D01*
X835711Y697625D01*
X835630Y697572D01*
X835552Y697516D01*
X835476Y697457D01*
X835403Y697395D01*
X835332Y697331D01*
X835263Y697263D01*
X835198Y697193D01*
X835135Y697120D01*
X835075Y697045D01*
X835019Y696967D01*
X834965Y696887D01*
X834915Y696805D01*
X834868Y696721D01*
X834825Y696636D01*
X834784Y696548D01*
X834748Y696459D01*
X834715Y696369D01*
X834616Y696161D01*
X834523Y695951D01*
X834435Y695739D01*
X834352Y695525D01*
X834274Y695308D01*
X834201Y695090D01*
X834133Y694871D01*
X834071Y694649D01*
X834014Y694427D01*
X833962Y694203D01*
X833916Y693978D01*
X833875Y693752D01*
X833840Y693524D01*
X833810Y693297D01*
X833785Y693068D01*
X833766Y692839D01*
X833752Y692610D01*
X833744Y692380D01*
X833741Y692150D01*
X840232Y692150D02*
X840229Y691920D01*
X840221Y691690D01*
X840207Y691461D01*
X840188Y691232D01*
X840163Y691003D01*
X840133Y690775D01*
X840098Y690548D01*
X840057Y690322D01*
X840011Y690097D01*
X839959Y689873D01*
X839902Y689650D01*
X839840Y689429D01*
X839772Y689209D01*
X839699Y688991D01*
X839621Y688775D01*
X839538Y688561D01*
X839450Y688349D01*
X839357Y688138D01*
X839258Y687931D01*
X839259Y687931D02*
X839226Y687841D01*
X839190Y687752D01*
X839149Y687664D01*
X839106Y687579D01*
X839059Y687495D01*
X839009Y687413D01*
X838955Y687333D01*
X838899Y687256D01*
X838839Y687180D01*
X838776Y687107D01*
X838711Y687037D01*
X838642Y686969D01*
X838571Y686905D01*
X838498Y686843D01*
X838422Y686784D01*
X838344Y686728D01*
X838263Y686675D01*
X838181Y686626D01*
X838097Y686580D01*
X838010Y686537D01*
X837923Y686498D01*
X837833Y686462D01*
X837743Y686430D01*
X837651Y686402D01*
X837558Y686377D01*
X837464Y686356D01*
X837370Y686339D01*
X837275Y686325D01*
X837179Y686316D01*
X837083Y686310D01*
X836987Y686308D01*
X834715Y687931D02*
X834616Y688138D01*
X834523Y688349D01*
X834435Y688561D01*
X834352Y688775D01*
X834274Y688991D01*
X834201Y689209D01*
X834133Y689429D01*
X834071Y689650D01*
X834014Y689873D01*
X833962Y690097D01*
X833916Y690322D01*
X833875Y690548D01*
X833840Y690775D01*
X833810Y691003D01*
X833785Y691232D01*
X833766Y691461D01*
X833752Y691690D01*
X833744Y691920D01*
X833741Y692150D01*
X834715Y687931D02*
X834748Y687841D01*
X834784Y687752D01*
X834825Y687664D01*
X834868Y687579D01*
X834915Y687495D01*
X834965Y687413D01*
X835019Y687333D01*
X835075Y687255D01*
X835135Y687180D01*
X835198Y687107D01*
X835263Y687037D01*
X835332Y686969D01*
X835403Y686905D01*
X835476Y686843D01*
X835552Y686784D01*
X835630Y686728D01*
X835711Y686675D01*
X835793Y686626D01*
X835877Y686580D01*
X835964Y686537D01*
X836051Y686498D01*
X836141Y686462D01*
X836231Y686430D01*
X836323Y686402D01*
X836416Y686377D01*
X836510Y686356D01*
X836604Y686339D01*
X836699Y686325D01*
X836795Y686316D01*
X836891Y686310D01*
X836987Y686308D01*
X839583Y688904D02*
X834390Y695396D01*
X828534Y694097D02*
X828534Y686308D01*
X828534Y694097D02*
X825288Y694097D01*
X825201Y694095D01*
X825113Y694089D01*
X825027Y694079D01*
X824940Y694066D01*
X824855Y694048D01*
X824770Y694027D01*
X824686Y694002D01*
X824604Y693973D01*
X824523Y693940D01*
X824443Y693904D01*
X824365Y693865D01*
X824289Y693821D01*
X824215Y693775D01*
X824144Y693725D01*
X824074Y693672D01*
X824007Y693616D01*
X823943Y693557D01*
X823881Y693496D01*
X823822Y693431D01*
X823766Y693364D01*
X823713Y693294D01*
X823663Y693223D01*
X823617Y693149D01*
X823574Y693073D01*
X823534Y692995D01*
X823498Y692915D01*
X823465Y692834D01*
X823436Y692752D01*
X823411Y692668D01*
X823390Y692583D01*
X823372Y692498D01*
X823359Y692411D01*
X823349Y692325D01*
X823343Y692237D01*
X823341Y692150D01*
X823341Y686308D01*
X817731Y686308D02*
X817731Y697992D01*
X812538Y697992D01*
X812538Y692799D02*
X817731Y692799D01*
M02*
