M48
;GenerationSoftware,Autodesk,EAGLE,9.6.2*%
;CreationDate,2023-03-08T21:42:16Z*%
FMAT,2
ICI,OFF
METRIC,TZ,000.000
T7C0.350
T6C0.381
T5C0.914
T4C0.965
T3C1.000
T2C1.016
T1C3.175
%
G90
M71
T1
X100330Y71120
X3810Y71120
X78740Y3810
X3810Y3810
T2
X10160Y27940
X87630Y29210
X83820Y29210
X80010Y29210
X99060Y50800
X99060Y55880
X99060Y29210
X95250Y29210
X91440Y34290
X87630Y34290
X83820Y34290
X80010Y34290
X99060Y24130
X97790Y6350
X95250Y24130
X93980Y6350
X91440Y24130
X90170Y6350
X87630Y24130
X86360Y6350
X83820Y24130
X67310Y34290
X71120Y34290
X74930Y34290
X80010Y24130
X76200Y24130
X2540Y33020
X5080Y33020
X7620Y33020
X10160Y33020
X12700Y33020
X15240Y33020
X17780Y33020
X20320Y33020
X22860Y33020
X25400Y33020
X27940Y33020
X30480Y33020
X2540Y30480
X5080Y30480
X7620Y30480
X10160Y30480
X12700Y30480
X15240Y30480
X17780Y30480
X20320Y30480
X22860Y30480
X25400Y30480
X27940Y30480
X30480Y30480
X2540Y27940
X5080Y27940
X7620Y27940
X30480Y20320
X12700Y27940
X15240Y27940
X17780Y27940
X20320Y27940
X22860Y27940
X25400Y27940
X27940Y27940
X30480Y27940
X2540Y25400
X5080Y25400
X7620Y25400
X10160Y25400
X12700Y25400
X15240Y25400
X17780Y25400
X20320Y25400
X22860Y25400
X25400Y25400
X27940Y25400
X30480Y25400
X33020Y25400
X35560Y25400
X38100Y25400
X2540Y22860
X5080Y22860
X7620Y22860
X10160Y22860
X12700Y22860
X15240Y22860
X17780Y22860
X20320Y22860
X22860Y22860
X25400Y22860
X27940Y22860
X30480Y22860
X33020Y22860
X35560Y22860
X38100Y22860
X40640Y22860
X43180Y22860
X45720Y22860
X48260Y22860
X50800Y22860
X53340Y22860
X2540Y20320
X5080Y20320
X7620Y20320
X10160Y20320
X12700Y20320
X15240Y20320
X17780Y20320
X20320Y20320
X22860Y20320
X25400Y20320
X27940Y20320
X33020Y20320
X35560Y20320
X38100Y20320
X40640Y20320
X43180Y20320
X45720Y20320
X48260Y20320
X50800Y20320
X53340Y20320
X55880Y20320
X55880Y22860
X2540Y17780
X5080Y17780
X7620Y17780
X10160Y17780
X12700Y17780
X15240Y17780
X17780Y17780
X20320Y17780
X22860Y17780
X25400Y17780
X27940Y17780
X30480Y17780
X33020Y17780
X35560Y17780
X38100Y17780
X40640Y17780
X43180Y17780
X45720Y17780
X48260Y17780
X50800Y17780
X53340Y17780
X55880Y17780
X58420Y17780
X60960Y17780
X58420Y20320
X60960Y20320
X2540Y15240
X5080Y15240
X7620Y15240
X10160Y15240
X12700Y15240
X15240Y15240
X17780Y15240
X20320Y15240
X22860Y15240
X25400Y15240
X27940Y15240
X30480Y15240
X33020Y15240
X35560Y15240
X38100Y15240
X40640Y15240
X43180Y15240
X45720Y15240
X48260Y15240
X50800Y15240
X53340Y15240
X55880Y15240
X58420Y15240
X60960Y15240
X63500Y15240
X66040Y15240
X63500Y17780
X66040Y17780
X33020Y27940
X35560Y27940
X38100Y27940
X2540Y12700
X5080Y12700
X7620Y12700
X10160Y12700
X12700Y12700
X15240Y12700
X17780Y12700
X20320Y12700
X22860Y12700
X25400Y12700
X27940Y12700
X30480Y12700
X33020Y12700
X35560Y12700
X38100Y12700
X40640Y12700
X43180Y12700
X45720Y12700
X48260Y12700
X50800Y12700
X53340Y12700
X55880Y12700
X58420Y12700
X60960Y12700
X63500Y12700
X66040Y12700
X2540Y10160
X5080Y10160
X7620Y10160
X10160Y10160
X12700Y10160
X15240Y10160
X17780Y10160
X20320Y10160
X22860Y10160
X25400Y10160
X27940Y10160
X30480Y10160
X33020Y10160
X35560Y10160
X38100Y10160
X40640Y10160
X43180Y10160
X45720Y10160
X48260Y10160
X50800Y10160
X53340Y10160
X55880Y10160
X58420Y10160
X60960Y10160
X63500Y10160
X66040Y10160
X10160Y7620
X12700Y7620
X15240Y7620
X17780Y7620
X20320Y7620
X22860Y7620
X25400Y7620
X27940Y7620
X30480Y7620
X33020Y7620
X35560Y7620
X38100Y7620
X40640Y7620
X43180Y7620
X45720Y7620
X48260Y7620
X50800Y7620
X53340Y7620
X55880Y7620
X58420Y7620
X60960Y7620
X63500Y7620
X66040Y7620
X68580Y7620
X71120Y7620
X10160Y5080
X12700Y5080
X15240Y5080
X17780Y5080
X20320Y5080
X22860Y5080
X25400Y5080
X27940Y5080
X30480Y5080
X33020Y5080
X35560Y5080
X38100Y5080
X40640Y5080
X43180Y5080
X45720Y5080
X48260Y5080
X50800Y5080
X71120Y5080
X68580Y5080
X66040Y5080
X63500Y5080
X60960Y5080
X58420Y5080
X10160Y2540
X12700Y2540
X15240Y2540
X17780Y2540
X20320Y2540
X22860Y2540
X25400Y2540
X27940Y2540
X30480Y2540
X33020Y2540
X35560Y2540
X38100Y2540
X40640Y2540
X43180Y2540
X45720Y2540
X48260Y2540
X50800Y2540
X53340Y2540
X55880Y2540
X58420Y2540
X60960Y2540
X63500Y2540
X66040Y2540
X68580Y2540
X71120Y2540
X53340Y5080
X55880Y5080
X34290Y34290
X26670Y66040
X29210Y66040
X31750Y66040
X26670Y53340
X29210Y53340
X31750Y53340
X26670Y40640
X29210Y40640
X31750Y40640
X44450Y27940
X49530Y27940
X54610Y27940
X59690Y52070
X99060Y40640
X73660Y40640
X73660Y45720
X99060Y60960
X73660Y67310
X73660Y72390
X73660Y55880
X73660Y50800
X91440Y29210
T3
X6350Y63500
X6350Y60960
T4
X93980Y63500
X93980Y60960
X93980Y58420
X93980Y55880
X91440Y40640
X93980Y50800
X93980Y48260
X93980Y45720
X93980Y53340
X93980Y43180
X93980Y40640
X78740Y40640
X78740Y43180
X88900Y40640
X78740Y45720
X78740Y48260
X78740Y50800
X78740Y53340
X78740Y55880
X78740Y58420
X78740Y60960
X78740Y63500
X78740Y68580
X78740Y66040
X93980Y66040
X78740Y71120
X93980Y68580
X78740Y73660
X93980Y73660
X93980Y71120
X86360Y40640
X83820Y40640
X81280Y40640
X91440Y45720
X91440Y48260
X88900Y45720
X86360Y45720
X83820Y45720
X81280Y45720
X88900Y48260
X86360Y48260
X83820Y48260
X81280Y48260
T5
X46990Y34290
X46990Y36830
X49530Y36830
X52070Y34290
X52070Y36830
X54610Y34290
X54610Y36830
X57150Y34290
X57150Y36830
X59690Y34290
X59690Y36830
X77470Y13970
X77470Y16510
X80010Y13970
X80010Y16510
X82550Y13970
X49530Y34290
X85090Y13970
X85090Y16510
X87630Y13970
X90170Y13970
X90170Y16510
X92710Y13970
X92710Y16510
X95250Y13970
X95250Y16510
X82550Y16510
X52070Y67310
X44450Y69850
X46990Y67310
X46990Y69850
X49530Y67310
X49530Y69850
X52070Y69850
X54610Y67310
X54610Y69850
X57150Y67310
X57150Y69850
X59690Y67310
X59690Y69850
X62230Y67310
X62230Y69850
X41910Y34290
X41910Y36830
X44450Y34290
X44450Y36830
X44450Y67310
X87630Y16510
T6
X19844Y45244
X64770Y27464
X97155Y64929
X94615Y37783
X19844Y52070
X45720Y39529
X64611Y59055
X49054Y59055
X56039Y49371
X65881Y49371
T7
X52070Y56991
X40640Y56991
X62389Y48260
X57785Y53499
X71755Y63817
X74454Y63024
X69056Y21907
X66516Y21907
X67310Y26670
X70326Y28099
X62071Y61595
X75248Y26829
X62865Y65087
X73660Y28416
X69533Y20003
X90964Y38735
X50006Y60007
X39370Y50006
X62706Y57150
M30