G04 EAGLE Gerber RS-274X export*
G75*
%MOMM*%
%FSLAX34Y34*%
%LPD*%
%INBottom Solder Mask*%
%IPPOS*%
%AMOC8*
5,1,8,0,0,1.08239X$1,22.5*%
G01*
%ADD10C,3.378200*%
%ADD11C,1.676400*%
%ADD12P,1.759533X8X22.500000*%
%ADD13C,1.727200*%
%ADD14C,1.879600*%
%ADD15R,2.103200X3.603200*%
%ADD16R,1.503200X1.703200*%
%ADD17C,1.711200*%
%ADD18C,0.959600*%
%ADD19C,0.990600*%
%ADD20C,1.727200*%


D10*
X38100Y711200D03*
X1003300Y711200D03*
X38100Y38100D03*
X787400Y38100D03*
D11*
X787400Y685800D03*
X787400Y660400D03*
X787400Y635000D03*
X787400Y609600D03*
X787400Y584200D03*
X787400Y558800D03*
X787400Y533400D03*
X787400Y508000D03*
X787400Y482600D03*
X787400Y457200D03*
X787400Y431800D03*
X787400Y406400D03*
X939800Y406400D03*
X939800Y431800D03*
X939800Y457200D03*
X939800Y482600D03*
X939800Y508000D03*
X939800Y533400D03*
X939800Y558800D03*
X939800Y584200D03*
X939800Y609600D03*
X939800Y635000D03*
X939800Y660400D03*
X787400Y711200D03*
X939800Y685800D03*
X787400Y736600D03*
X939800Y736600D03*
X939800Y711200D03*
X914400Y406400D03*
X889000Y406400D03*
X863600Y406400D03*
X838200Y406400D03*
X812800Y406400D03*
X914400Y457200D03*
X914400Y482600D03*
X889000Y457200D03*
X863600Y457200D03*
X838200Y457200D03*
X812800Y457200D03*
X889000Y482600D03*
X863600Y482600D03*
X838200Y482600D03*
X812800Y482600D03*
D12*
X444500Y673100D03*
X444500Y698500D03*
X469900Y673100D03*
X469900Y698500D03*
X495300Y673100D03*
X495300Y698500D03*
X520700Y673100D03*
X520700Y698500D03*
X546100Y673100D03*
X546100Y698500D03*
X571500Y673100D03*
X571500Y698500D03*
X596900Y673100D03*
X596900Y698500D03*
X622300Y673100D03*
X622300Y698500D03*
X419100Y342900D03*
X419100Y368300D03*
X444500Y342900D03*
X444500Y368300D03*
X469900Y342900D03*
X469900Y368300D03*
X495300Y342900D03*
X495300Y368300D03*
X520700Y342900D03*
X520700Y368300D03*
X546100Y342900D03*
X546100Y368300D03*
X571500Y342900D03*
X571500Y368300D03*
X596900Y342900D03*
X596900Y368300D03*
X774700Y139700D03*
X774700Y165100D03*
X800100Y139700D03*
X800100Y165100D03*
X825500Y139700D03*
X825500Y165100D03*
X850900Y139700D03*
X850900Y165100D03*
X876300Y139700D03*
X876300Y165100D03*
X901700Y139700D03*
X901700Y165100D03*
X927100Y139700D03*
X927100Y165100D03*
X952500Y139700D03*
X952500Y165100D03*
D13*
X266700Y652780D02*
X266700Y668020D01*
X292100Y668020D02*
X292100Y652780D01*
X317500Y652780D02*
X317500Y668020D01*
X266700Y541020D02*
X266700Y525780D01*
X292100Y525780D02*
X292100Y541020D01*
X317500Y541020D02*
X317500Y525780D01*
X266700Y414020D02*
X266700Y398780D01*
X292100Y398780D02*
X292100Y414020D01*
X317500Y414020D02*
X317500Y398780D01*
D14*
X444500Y279400D03*
X495300Y279400D03*
X546100Y279400D03*
X596900Y520700D03*
X990600Y406400D03*
X736600Y406400D03*
X736600Y457200D03*
D15*
X145600Y673100D03*
X184600Y673100D03*
X158300Y546100D03*
X197300Y546100D03*
X158300Y419100D03*
X197300Y419100D03*
D16*
X314300Y711200D03*
X295300Y711200D03*
X314300Y457200D03*
X295300Y457200D03*
X314300Y584200D03*
X295300Y584200D03*
X860400Y647700D03*
X841400Y647700D03*
D14*
X990600Y609600D03*
D17*
X71040Y635000D02*
X55960Y635000D01*
X55960Y609600D02*
X71040Y609600D01*
D14*
X736600Y673100D03*
X736600Y723900D03*
X736600Y558800D03*
X736600Y508000D03*
X914400Y292100D03*
X876300Y292100D03*
X838200Y292100D03*
X800100Y292100D03*
X990600Y508000D03*
X990600Y558800D03*
X990600Y292100D03*
X952500Y292100D03*
X914400Y342900D03*
X876300Y342900D03*
X838200Y342900D03*
X800100Y342900D03*
X990600Y241300D03*
X977900Y63500D03*
X952500Y241300D03*
X939800Y63500D03*
X914400Y241300D03*
X901700Y63500D03*
X876300Y241300D03*
X863600Y63500D03*
X838200Y241300D03*
X673100Y342900D03*
X711200Y342900D03*
X749300Y342900D03*
X800100Y241300D03*
X762000Y241300D03*
X342900Y342900D03*
D16*
X860400Y711200D03*
X841400Y711200D03*
D18*
X628650Y650875D03*
X620713Y615950D03*
X744538Y630238D03*
X717550Y638175D03*
X577850Y534988D03*
X623888Y482600D03*
X406400Y569913D03*
X520700Y569913D03*
D19*
X658813Y493713D03*
X560388Y493713D03*
D18*
X627063Y571500D03*
X393700Y500063D03*
D19*
X490538Y590550D03*
X646113Y590550D03*
X457200Y395288D03*
D18*
X500063Y600075D03*
D19*
X198438Y452438D03*
X198438Y520700D03*
X946150Y377825D03*
X971550Y649288D03*
X647700Y274638D03*
D18*
X909638Y387350D03*
X695325Y200025D03*
X736600Y284163D03*
X752475Y268288D03*
X703263Y280988D03*
X673100Y266700D03*
X665163Y219075D03*
X690563Y219075D03*
D20*
X25400Y330200D03*
X50800Y330200D03*
X76200Y330200D03*
X101600Y330200D03*
X127000Y330200D03*
X152400Y330200D03*
X177800Y330200D03*
X203200Y330200D03*
X228600Y330200D03*
X254000Y330200D03*
X279400Y330200D03*
X304800Y330200D03*
X25400Y304800D03*
X50800Y304800D03*
X76200Y304800D03*
X101600Y304800D03*
X127000Y304800D03*
X152400Y304800D03*
X177800Y304800D03*
X203200Y304800D03*
X228600Y304800D03*
X254000Y304800D03*
X279400Y304800D03*
X304800Y304800D03*
X25400Y279400D03*
X50800Y279400D03*
X76200Y279400D03*
X101600Y279400D03*
X127000Y279400D03*
X152400Y279400D03*
X177800Y279400D03*
X203200Y279400D03*
X228600Y279400D03*
X254000Y279400D03*
X279400Y279400D03*
X304800Y279400D03*
X25400Y254000D03*
X50800Y254000D03*
X76200Y254000D03*
X101600Y254000D03*
X127000Y254000D03*
X152400Y254000D03*
X177800Y254000D03*
X203200Y254000D03*
X228600Y254000D03*
X254000Y254000D03*
X279400Y254000D03*
X304800Y254000D03*
X330200Y254000D03*
X355600Y254000D03*
X381000Y254000D03*
X25400Y228600D03*
X50800Y228600D03*
X76200Y228600D03*
X101600Y228600D03*
X127000Y228600D03*
X152400Y228600D03*
X177800Y228600D03*
X203200Y228600D03*
X228600Y228600D03*
X254000Y228600D03*
X279400Y228600D03*
X304800Y228600D03*
X330200Y228600D03*
X355600Y228600D03*
X381000Y228600D03*
X406400Y228600D03*
X431800Y228600D03*
X457200Y228600D03*
X482600Y228600D03*
X508000Y228600D03*
X533400Y228600D03*
X25400Y203200D03*
X50800Y203200D03*
X76200Y203200D03*
X101600Y203200D03*
X127000Y203200D03*
X152400Y203200D03*
X177800Y203200D03*
X203200Y203200D03*
X228600Y203200D03*
X254000Y203200D03*
X279400Y203200D03*
X304800Y203200D03*
X330200Y203200D03*
X355600Y203200D03*
X381000Y203200D03*
X406400Y203200D03*
X431800Y203200D03*
X457200Y203200D03*
X482600Y203200D03*
X508000Y203200D03*
X533400Y203200D03*
X558800Y203200D03*
X558800Y228600D03*
X25400Y177800D03*
X50800Y177800D03*
X76200Y177800D03*
X101600Y177800D03*
X127000Y177800D03*
X152400Y177800D03*
X177800Y177800D03*
X203200Y177800D03*
X228600Y177800D03*
X254000Y177800D03*
X279400Y177800D03*
X304800Y177800D03*
X330200Y177800D03*
X355600Y177800D03*
X381000Y177800D03*
X406400Y177800D03*
X431800Y177800D03*
X457200Y177800D03*
X482600Y177800D03*
X508000Y177800D03*
X533400Y177800D03*
X558800Y177800D03*
X584200Y177800D03*
X609600Y177800D03*
X584200Y203200D03*
X609600Y203200D03*
X25400Y152400D03*
X50800Y152400D03*
X76200Y152400D03*
X101600Y152400D03*
X127000Y152400D03*
X152400Y152400D03*
X177800Y152400D03*
X203200Y152400D03*
X228600Y152400D03*
X254000Y152400D03*
X279400Y152400D03*
X304800Y152400D03*
X330200Y152400D03*
X355600Y152400D03*
X381000Y152400D03*
X406400Y152400D03*
X431800Y152400D03*
X457200Y152400D03*
X482600Y152400D03*
X508000Y152400D03*
X533400Y152400D03*
X558800Y152400D03*
X584200Y152400D03*
X609600Y152400D03*
X635000Y152400D03*
X660400Y152400D03*
X635000Y177800D03*
X660400Y177800D03*
X330200Y279400D03*
X355600Y279400D03*
X381000Y279400D03*
X25400Y127000D03*
X50800Y127000D03*
X76200Y127000D03*
X101600Y127000D03*
X127000Y127000D03*
X152400Y127000D03*
X177800Y127000D03*
X203200Y127000D03*
X228600Y127000D03*
X254000Y127000D03*
X279400Y127000D03*
X304800Y127000D03*
X330200Y127000D03*
X355600Y127000D03*
X381000Y127000D03*
X406400Y127000D03*
X431800Y127000D03*
X457200Y127000D03*
X482600Y127000D03*
X508000Y127000D03*
X533400Y127000D03*
X558800Y127000D03*
X584200Y127000D03*
X609600Y127000D03*
X635000Y127000D03*
X660400Y127000D03*
X25400Y101600D03*
X50800Y101600D03*
X76200Y101600D03*
X101600Y101600D03*
X127000Y101600D03*
X152400Y101600D03*
X177800Y101600D03*
X203200Y101600D03*
X228600Y101600D03*
X254000Y101600D03*
X279400Y101600D03*
X304800Y101600D03*
X330200Y101600D03*
X355600Y101600D03*
X381000Y101600D03*
X406400Y101600D03*
X431800Y101600D03*
X457200Y101600D03*
X482600Y101600D03*
X508000Y101600D03*
X533400Y101600D03*
X558800Y101600D03*
X584200Y101600D03*
X609600Y101600D03*
X635000Y101600D03*
X660400Y101600D03*
X101600Y76200D03*
X127000Y76200D03*
X152400Y76200D03*
X177800Y76200D03*
X203200Y76200D03*
X228600Y76200D03*
X254000Y76200D03*
X279400Y76200D03*
X304800Y76200D03*
X330200Y76200D03*
X355600Y76200D03*
X381000Y76200D03*
X406400Y76200D03*
X431800Y76200D03*
X457200Y76200D03*
X482600Y76200D03*
X508000Y76200D03*
X533400Y76200D03*
X558800Y76200D03*
X584200Y76200D03*
X609600Y76200D03*
X635000Y76200D03*
X660400Y76200D03*
X685800Y76200D03*
X711200Y76200D03*
X101600Y50800D03*
X127000Y50800D03*
X152400Y50800D03*
X177800Y50800D03*
X203200Y50800D03*
X228600Y50800D03*
X254000Y50800D03*
X279400Y50800D03*
X304800Y50800D03*
X330200Y50800D03*
X355600Y50800D03*
X381000Y50800D03*
X406400Y50800D03*
X431800Y50800D03*
X457200Y50800D03*
X482600Y50800D03*
X508000Y50800D03*
X711200Y50800D03*
X685800Y50800D03*
X660400Y50800D03*
X635000Y50800D03*
X609600Y50800D03*
X584200Y50800D03*
X101600Y25400D03*
X127000Y25400D03*
X152400Y25400D03*
X177800Y25400D03*
X203200Y25400D03*
X228600Y25400D03*
X254000Y25400D03*
X279400Y25400D03*
X304800Y25400D03*
X330200Y25400D03*
X355600Y25400D03*
X381000Y25400D03*
X406400Y25400D03*
X431800Y25400D03*
X457200Y25400D03*
X482600Y25400D03*
X508000Y25400D03*
X533400Y25400D03*
X558800Y25400D03*
X584200Y25400D03*
X609600Y25400D03*
X635000Y25400D03*
X660400Y25400D03*
X685800Y25400D03*
X711200Y25400D03*
X533400Y50800D03*
X558800Y50800D03*
M02*
