M48
; DRILL file {KiCad 9.0.7-9.0.7~ubuntu24.04.1} date 2026-03-25T14:33:53-0400
; FORMAT={-:-/ absolute / metric / decimal}
; #@! TF.CreationDate,2026-03-25T14:33:53-04:00
; #@! TF.GenerationSoftware,Kicad,Pcbnew,9.0.7-9.0.7~ubuntu24.04.1
; #@! TF.FileFunction,Plated,1,2,PTH
FMAT,2
METRIC
; #@! TA.AperFunction,Plated,PTH,ComponentDrill
T1C0.800
; #@! TA.AperFunction,Plated,PTH,ComponentDrill
T2C0.965
; #@! TA.AperFunction,Plated,PTH,ComponentDrill
T3C1.000
%
G90
G05
T1
X141.848Y-49.784
X142.748Y-36.611
X142.748Y-40.411
X144.348Y-49.784
X201.32Y-65.634
X201.32Y-68.174
X211.48Y-65.634
X211.48Y-68.174
T2
X175.98Y-42.49
X175.98Y-45.03
X175.98Y-47.57
X175.98Y-50.11
X175.98Y-52.65
X175.98Y-55.19
X175.98Y-57.73
X175.98Y-60.27
X175.98Y-62.81
X175.98Y-65.35
X175.98Y-67.89
X175.98Y-70.43
X175.98Y-72.97
X175.98Y-75.51
X178.52Y-67.89
X178.52Y-70.43
X178.52Y-75.51
X181.06Y-67.89
X181.06Y-70.43
X181.06Y-75.51
X183.6Y-67.89
X183.6Y-70.43
X183.6Y-75.51
X186.14Y-67.89
X186.14Y-70.43
X186.14Y-75.51
X188.68Y-67.89
X188.68Y-70.43
X188.68Y-75.51
X191.22Y-42.49
X191.22Y-45.03
X191.22Y-47.57
X191.22Y-50.11
X191.22Y-52.65
X191.22Y-55.19
X191.22Y-57.73
X191.22Y-60.27
X191.22Y-62.81
X191.22Y-65.35
X191.22Y-67.89
X191.22Y-70.43
X191.22Y-72.97
X191.22Y-75.51
T3
X120.447Y-71.806
X120.447Y-74.346
X120.447Y-76.886
X120.447Y-79.426
X120.447Y-81.966
X122.987Y-71.806
X122.987Y-74.346
X122.987Y-76.886
X122.987Y-79.426
X122.987Y-81.966
X125.527Y-71.806
X125.527Y-74.346
X125.527Y-76.886
X125.527Y-79.426
X125.527Y-81.966
X128.067Y-71.806
X128.067Y-74.346
X128.067Y-76.886
X128.067Y-79.426
X128.067Y-81.966
X128.239Y-60.401
X130.607Y-71.806
X130.607Y-74.346
X130.607Y-76.886
X130.607Y-79.426
X130.607Y-81.966
X131.53Y-45.918
X131.53Y-48.418
X132.486Y-87.503
X132.486Y-90.043
X132.486Y-92.583
X132.486Y-95.123
X132.486Y-97.663
X133.147Y-71.806
X133.147Y-74.346
X133.147Y-76.886
X133.147Y-79.426
X133.147Y-81.966
X133.239Y-60.401
X135.026Y-87.503
X135.026Y-90.043
X135.026Y-92.583
X135.026Y-95.123
X135.026Y-97.663
X135.687Y-71.806
X135.687Y-74.346
X135.687Y-76.886
X135.687Y-79.426
X135.687Y-81.966
X137.566Y-87.503
X137.566Y-90.043
X137.566Y-92.583
X137.566Y-95.123
X137.566Y-97.663
X138.227Y-71.806
X138.227Y-74.346
X138.227Y-76.886
X138.227Y-79.426
X138.227Y-81.966
X139.802Y-60.401
X142.646Y-87.503
X142.646Y-90.043
X142.646Y-92.583
X142.646Y-95.123
X142.646Y-97.663
X145.186Y-87.503
X145.186Y-90.043
X145.186Y-92.583
X145.186Y-95.123
X145.186Y-97.663
X147.726Y-87.503
X147.726Y-90.043
X147.726Y-92.583
X147.726Y-95.123
X147.726Y-97.663
X155.042Y-60.401
X157.963Y-41.885
X157.963Y-44.425
X157.963Y-46.965
X161.849Y-78.308
X161.849Y-80.848
X161.849Y-83.388
X161.849Y-85.928
X171.983Y-42.49
X171.983Y-45.03
X171.983Y-47.57
X171.983Y-50.11
X171.983Y-52.65
X171.983Y-55.19
X171.983Y-57.73
X171.983Y-60.27
X171.983Y-62.81
X171.983Y-65.35
X171.983Y-67.89
X171.983Y-70.43
X171.983Y-72.97
X171.983Y-75.51
X173.02Y-87.86
X173.02Y-90.4
X175.56Y-87.86
X175.56Y-90.4
X178.1Y-87.86
X178.1Y-90.4
X180.64Y-87.86
X180.64Y-90.4
X183.18Y-87.86
X183.18Y-90.4
X185.72Y-87.86
X185.72Y-90.4
X188.26Y-87.86
X188.26Y-90.4
X190.8Y-87.86
X190.8Y-90.4
X193.34Y-87.86
X193.34Y-90.4
X194.437Y-42.49
X194.437Y-45.03
X194.437Y-47.57
X194.437Y-50.11
X194.437Y-52.65
X194.437Y-55.19
X194.437Y-57.73
X194.437Y-60.27
X194.437Y-62.81
X194.437Y-65.35
X194.437Y-67.89
X194.437Y-70.43
X194.437Y-72.97
X194.437Y-75.51
X195.88Y-87.86
X195.88Y-90.4
X202.692Y-55.169
X204.445Y-48.793
X205.232Y-55.169
X206.553Y-73.279
X206.985Y-48.793
X207.772Y-55.169
X207.996Y-80.315
X209.093Y-73.279
X210.312Y-55.169
X210.536Y-80.315
X212.852Y-55.169
X215.392Y-55.169
X215.9Y-73.279
X218.44Y-73.279
M30
