%TF.GenerationSoftware,KiCad,Pcbnew,9.0.7-9.0.7~ubuntu24.04.1*%
%TF.CreationDate,2026-03-25T14:33:55-04:00*%
%TF.ProjectId,ABR_device_compact,4142525f-6465-4766-9963-655f636f6d70,rev?*%
%TF.SameCoordinates,Original*%
%TF.FileFunction,Copper,L1,Top*%
%TF.FilePolarity,Positive*%
%FSLAX46Y46*%
G04 Gerber Fmt 4.6, Leading zero omitted, Abs format (unit mm)*
G04 Created by KiCad (PCBNEW 9.0.7-9.0.7~ubuntu24.04.1) date 2026-03-25 14:33:55*
%MOMM*%
%LPD*%
G01*
G04 APERTURE LIST*
G04 Aperture macros list*
%AMRoundRect*
0 Rectangle with rounded corners*
0 $1 Rounding radius*
0 $2 $3 $4 $5 $6 $7 $8 $9 X,Y pos of 4 corners*
0 Add a 4 corners polygon primitive as box body*
4,1,4,$2,$3,$4,$5,$6,$7,$8,$9,$2,$3,0*
0 Add four circle primitives for the rounded corners*
1,1,$1+$1,$2,$3*
1,1,$1+$1,$4,$5*
1,1,$1+$1,$6,$7*
1,1,$1+$1,$8,$9*
0 Add four rect primitives between the rounded corners*
20,1,$1+$1,$2,$3,$4,$5,0*
20,1,$1+$1,$4,$5,$6,$7,0*
20,1,$1+$1,$6,$7,$8,$9,0*
20,1,$1+$1,$8,$9,$2,$3,0*%
G04 Aperture macros list end*
%TA.AperFunction,ComponentPad*%
%ADD10C,2.000000*%
%TD*%
%TA.AperFunction,ComponentPad*%
%ADD11R,1.700000X1.700000*%
%TD*%
%TA.AperFunction,ComponentPad*%
%ADD12C,1.700000*%
%TD*%
%TA.AperFunction,ComponentPad*%
%ADD13C,1.600000*%
%TD*%
%TA.AperFunction,ComponentPad*%
%ADD14RoundRect,0.250000X-0.550000X-0.550000X0.550000X-0.550000X0.550000X0.550000X-0.550000X0.550000X0*%
%TD*%
%TA.AperFunction,ComponentPad*%
%ADD15RoundRect,0.250000X-0.750000X-0.750000X0.750000X-0.750000X0.750000X0.750000X-0.750000X0.750000X0*%
%TD*%
%TA.AperFunction,ComponentPad*%
%ADD16C,1.473200*%
%TD*%
%TA.AperFunction,ComponentPad*%
%ADD17RoundRect,0.250000X0.550000X-0.550000X0.550000X0.550000X-0.550000X0.550000X-0.550000X-0.550000X0*%
%TD*%
%TA.AperFunction,ComponentPad*%
%ADD18RoundRect,0.250000X0.750000X-0.600000X0.750000X0.600000X-0.750000X0.600000X-0.750000X-0.600000X0*%
%TD*%
%TA.AperFunction,ComponentPad*%
%ADD19O,2.000000X1.700000*%
%TD*%
%TA.AperFunction,ComponentPad*%
%ADD20R,1.508000X1.508000*%
%TD*%
%TA.AperFunction,ComponentPad*%
%ADD21C,1.508000*%
%TD*%
%TA.AperFunction,ComponentPad*%
%ADD22RoundRect,0.250000X0.600000X-0.600000X0.600000X0.600000X-0.600000X0.600000X-0.600000X-0.600000X0*%
%TD*%
%TA.AperFunction,Conductor*%
%ADD23C,0.635000*%
%TD*%
%TA.AperFunction,Conductor*%
%ADD24C,0.304800*%
%TD*%
%TA.AperFunction,Conductor*%
%ADD25C,0.381000*%
%TD*%
G04 APERTURE END LIST*
D10*
%TO.P,5,1*%
%TO.N,N/C*%
X128066800Y-71805800D03*
%TD*%
%TO.P,40,1*%
%TO.N,N/C*%
X135686800Y-79425800D03*
%TD*%
D11*
%TO.P,J8,1,Pin_1*%
%TO.N,Net-(J8-Pin_1)*%
X206984600Y-48793400D03*
D12*
%TO.P,J8,2,Pin_2*%
%TO.N,Net-(J4-Pin_3)*%
X204444600Y-48793400D03*
%TD*%
D10*
%TO.P,2,1*%
%TO.N,N/C*%
X120446800Y-71805800D03*
%TD*%
%TO.P,48,1*%
%TO.N,N/C*%
X135686800Y-81965800D03*
%TD*%
%TO.P,14,1*%
%TO.N,N/C*%
X130606800Y-74345800D03*
%TD*%
%TO.P,41,1*%
%TO.N,N/C*%
X137566400Y-97663000D03*
%TD*%
D13*
%TO.P,R1,1*%
%TO.N,Net-(1-16{slash}A2{slash}RX4)*%
X201320400Y-65633600D03*
%TO.P,R1,2*%
%TO.N,Net-(J5-Pin_1)*%
X211480400Y-65633600D03*
%TD*%
D10*
%TO.P,8,1*%
%TO.N,N/C*%
X135686800Y-71805800D03*
%TD*%
%TO.P,44,1*%
%TO.N,N/C*%
X125526800Y-81965800D03*
%TD*%
%TO.P,31,1*%
%TO.N,N/C*%
X147726400Y-95123000D03*
%TD*%
%TO.P,17,1*%
%TO.N,N/C*%
X145186400Y-97663000D03*
%TD*%
%TO.P,73,1*%
%TO.N,N/C*%
X135026400Y-95123000D03*
%TD*%
%TO.P,72,1*%
%TO.N,N/C*%
X137566400Y-95123000D03*
%TD*%
%TO.P,24,1*%
%TO.N,N/C*%
X135686800Y-76885800D03*
%TD*%
%TO.P,26,1*%
%TO.N,N/C*%
X132486400Y-92583000D03*
%TD*%
%TO.P,63,1*%
%TO.N,N/C*%
X132486400Y-90043000D03*
%TD*%
%TO.P,64,1*%
%TO.N,N/C*%
X147726400Y-90043000D03*
%TD*%
%TO.P,58,1*%
%TO.N,N/C*%
X147726400Y-87503000D03*
%TD*%
D14*
%TO.P,C3,1*%
%TO.N,Net-(J4-Pin_1)*%
X141848200Y-49784000D03*
D13*
%TO.P,C3,2*%
%TO.N,GND*%
X144348200Y-49784000D03*
%TD*%
D10*
%TO.P,35,1*%
%TO.N,N/C*%
X122986800Y-79425800D03*
%TD*%
%TO.P,65,1*%
%TO.N,N/C*%
X145186400Y-90043000D03*
%TD*%
%TO.P,,1*%
%TO.N,N/C*%
X132486400Y-97663000D03*
%TD*%
%TO.P,28,1*%
%TO.N,N/C*%
X145186400Y-92583000D03*
%TD*%
%TO.P,4,1*%
%TO.N,N/C*%
X125526800Y-71805800D03*
%TD*%
D11*
%TO.P,J5,1,Pin_1*%
%TO.N,Net-(J5-Pin_1)*%
X206552800Y-73279000D03*
D12*
%TO.P,J5,2,Pin_2*%
%TO.N,GND*%
X209092800Y-73279000D03*
%TD*%
D10*
%TO.P,43,1*%
%TO.N,N/C*%
X122986800Y-81965800D03*
%TD*%
D15*
%TO.P,C1,1*%
%TO.N,+9V*%
X128239123Y-60401200D03*
D10*
%TO.P,C1,2*%
%TO.N,GND*%
X133239123Y-60401200D03*
%TD*%
D16*
%TO.P,1,0/RX,0/RX1*%
%TO.N,Net-(1-0{slash}RX1)*%
X175980000Y-45030000D03*
%TO.P,1,1/TX,1/TX1*%
%TO.N,Net-(1-1{slash}TX1)*%
X175980000Y-47570000D03*
%TO.P,1,2,2*%
%TO.N,Net-(J3-Pin_4)*%
X175980000Y-50110000D03*
%TO.P,1,3,3*%
%TO.N,Net-(J1-DRDYB)*%
X175980000Y-52650000D03*
%TO.P,1,3V3_LN,3V3_LN*%
%TO.N,unconnected-(1-Pad3V3_LN)*%
X181060000Y-75510000D03*
%TO.P,1,3V3_LO,3V3_LO*%
%TO.N,Net-(J4-Pin_3)*%
X191220000Y-47570000D03*
%TO.P,1,4,4*%
%TO.N,Net-(J1-START{slash}CS)*%
X175980000Y-55190000D03*
%TO.P,1,5,5*%
%TO.N,Net-(J1-CS)*%
X175980000Y-57730000D03*
%TO.P,1,6,6*%
%TO.N,Net-(J1-RESETB)*%
X175980000Y-60270000D03*
%TO.P,1,7,7/RX2*%
%TO.N,Net-(1-7{slash}RX2)*%
X175980000Y-62810000D03*
%TO.P,1,8,8/TX2*%
%TO.N,Net-(1-8{slash}TX2)*%
X175980000Y-65350000D03*
%TO.P,1,9,9*%
%TO.N,Net-(J3-Pin_11)*%
X175980000Y-67890000D03*
%TO.P,1,10/CS,10/CS*%
%TO.N,Net-(J3-Pin_12)*%
X175980000Y-70430000D03*
%TO.P,1,11/MOSI,11/MOSI*%
%TO.N,Net-(J1-DIN)*%
X175980000Y-72970000D03*
%TO.P,1,12/MISO,12/MISO*%
%TO.N,Net-(J1-DOUT)*%
X175980000Y-75510000D03*
%TO.P,1,13/SCK,13/SCK*%
%TO.N,Net-(J1-CLK)*%
X191220000Y-75510000D03*
%TO.P,1,14/A0,14/A0/TX3*%
%TO.N,Net-(1-14{slash}A0{slash}TX3)*%
X191220000Y-72970000D03*
%TO.P,1,15/A1,15/A1/RX3*%
%TO.N,Net-(1-15{slash}A1{slash}RX3)*%
X191220000Y-70430000D03*
%TO.P,1,16/A2,16/A2/RX4*%
%TO.N,Net-(1-16{slash}A2{slash}RX4)*%
X191220000Y-67890000D03*
%TO.P,1,17/A3,17/A3/TX4*%
%TO.N,Net-(1-17{slash}A3{slash}TX4)*%
X191220000Y-65350000D03*
%TO.P,1,18/A4/SDA,18/A4/SDA*%
%TO.N,Net-(J4-Pin_9)*%
X191220000Y-62810000D03*
%TO.P,1,19/A5/SCL,19/A5/SCL*%
%TO.N,Net-(J4-Pin_8)*%
X191220000Y-60270000D03*
%TO.P,1,20/A6,20/A6/TX5*%
%TO.N,Net-(1-20{slash}A6{slash}TX5)*%
X191220000Y-57730000D03*
%TO.P,1,21/A7,21/A7/RX5*%
%TO.N,Net-(1-21{slash}A7{slash}RX5)*%
X191220000Y-55190000D03*
%TO.P,1,22/A8,22/A8*%
%TO.N,Net-(J4-Pin_5)*%
X191220000Y-52650000D03*
%TO.P,1,23/A9,23/A9*%
%TO.N,Net-(J4-Pin_4)*%
X191220000Y-50110000D03*
%TO.P,1,24,A10/24*%
%TO.N,unconnected-(1-A10{slash}24-Pad24)*%
X188680000Y-70430000D03*
%TO.P,1,25,A11/25*%
%TO.N,unconnected-(1-A11{slash}25-Pad25)*%
X188680000Y-67890000D03*
%TO.P,1,26,A12/26*%
%TO.N,unconnected-(1-A12{slash}26-Pad26)*%
X186140000Y-70430000D03*
%TO.P,1,27,A13/27*%
%TO.N,unconnected-(1-A13{slash}27-Pad27)*%
X186140000Y-67890000D03*
%TO.P,1,28,28*%
%TO.N,unconnected-(1-Pad28)*%
X183600000Y-70430000D03*
%TO.P,1,29,29*%
%TO.N,unconnected-(1-Pad29)*%
X183600000Y-67890000D03*
%TO.P,1,30,30*%
%TO.N,unconnected-(1-Pad30)*%
X181060000Y-70430000D03*
%TO.P,1,31,31*%
%TO.N,unconnected-(1-Pad31)*%
X181060000Y-67890000D03*
%TO.P,1,32,32*%
%TO.N,unconnected-(1-Pad32)*%
X178520000Y-70430000D03*
%TO.P,1,33,33*%
%TO.N,unconnected-(1-Pad33)*%
X178520000Y-67890000D03*
%TO.P,1,GND,GND*%
%TO.N,GND*%
X175980000Y-42490000D03*
%TO.P,1,GND2,GND2*%
X191220000Y-45030000D03*
%TO.P,1,GND3,GND3*%
X183600000Y-75510000D03*
%TO.P,1,ON/OFF,ON/OFF*%
%TO.N,unconnected-(1-PadON{slash}OFF)*%
X188680000Y-75510000D03*
%TO.P,1,PROG,PROG*%
%TO.N,unconnected-(1-PadPROG)*%
X186140000Y-75510000D03*
%TO.P,1,VBAT\u005C,VBAT*%
%TO.N,unconnected-(1-VBAT-PadVBAT\u005C)*%
X178520000Y-75510000D03*
%TO.P,1,VIN,VIN*%
%TO.N,Net-(J4-Pin_1)*%
X191220000Y-42490000D03*
%TD*%
D10*
%TO.P,L1,1*%
%TO.N,+9V*%
X139801600Y-60401200D03*
%TO.P,L1,2*%
%TO.N,Net-(PS1-+VIN)*%
X155041600Y-60401200D03*
%TD*%
%TO.P,59,1*%
%TO.N,N/C*%
X145186400Y-87503000D03*
%TD*%
%TO.P,36,1*%
%TO.N,N/C*%
X125526800Y-79425800D03*
%TD*%
%TO.P,46,1*%
%TO.N,N/C*%
X130606800Y-81965800D03*
%TD*%
%TO.P,19,1*%
%TO.N,N/C*%
X122986800Y-76885800D03*
%TD*%
%TO.P,30,1*%
%TO.N,N/C*%
X132486400Y-95123000D03*
%TD*%
%TO.P,41,1*%
%TO.N,N/C*%
X138226800Y-81965800D03*
%TD*%
%TO.P,7,1*%
%TO.N,N/C*%
X133146800Y-71805800D03*
%TD*%
%TO.P,38,1*%
%TO.N,N/C*%
X130606800Y-79425800D03*
%TD*%
%TO.P,32,1*%
%TO.N,N/C*%
X145186400Y-95123000D03*
%TD*%
D11*
%TO.P,U1,1,GND*%
%TO.N,GND*%
X215392000Y-55168800D03*
D12*
%TO.P,U1,2,CTS*%
%TO.N,unconnected-(U1-CTS-Pad2)*%
X212852000Y-55168800D03*
%TO.P,U1,3,VCC*%
%TO.N,Net-(J8-Pin_1)*%
X210312000Y-55168800D03*
%TO.P,U1,4,TX*%
%TO.N,Net-(1-0{slash}RX1)*%
X207772000Y-55168800D03*
%TO.P,U1,5,RX*%
%TO.N,Net-(1-1{slash}TX1)*%
X205232000Y-55168800D03*
%TO.P,U1,6,RTS*%
%TO.N,unconnected-(U1-RTS-Pad6)*%
X202692000Y-55168800D03*
%TD*%
D10*
%TO.P,11,1*%
%TO.N,N/C*%
X122986800Y-74345800D03*
%TD*%
%TO.P,68,1*%
%TO.N,N/C*%
X135026400Y-90043000D03*
%TD*%
D11*
%TO.P,J4,1,Pin_1*%
%TO.N,Net-(J4-Pin_1)*%
X194437000Y-42490000D03*
D12*
%TO.P,J4,2,Pin_2*%
%TO.N,GND*%
X194437000Y-45030000D03*
%TO.P,J4,3,Pin_3*%
%TO.N,Net-(J4-Pin_3)*%
X194437000Y-47570000D03*
%TO.P,J4,4,Pin_4*%
%TO.N,Net-(J4-Pin_4)*%
X194437000Y-50110000D03*
%TO.P,J4,5,Pin_5*%
%TO.N,Net-(J4-Pin_5)*%
X194437000Y-52650000D03*
%TO.P,J4,6,Pin_6*%
%TO.N,Net-(1-21{slash}A7{slash}RX5)*%
X194437000Y-55190000D03*
%TO.P,J4,7,Pin_7*%
%TO.N,Net-(1-20{slash}A6{slash}TX5)*%
X194437000Y-57730000D03*
%TO.P,J4,8,Pin_8*%
%TO.N,Net-(J4-Pin_8)*%
X194437000Y-60270000D03*
%TO.P,J4,9,Pin_9*%
%TO.N,Net-(J4-Pin_9)*%
X194437000Y-62810000D03*
%TO.P,J4,10,Pin_10*%
%TO.N,Net-(1-17{slash}A3{slash}TX4)*%
X194437000Y-65350000D03*
%TO.P,J4,11,Pin_11*%
%TO.N,Net-(1-16{slash}A2{slash}RX4)*%
X194437000Y-67890000D03*
%TO.P,J4,12,Pin_12*%
%TO.N,Net-(1-15{slash}A1{slash}RX3)*%
X194437000Y-70430000D03*
%TO.P,J4,13,Pin_13*%
%TO.N,Net-(1-14{slash}A0{slash}TX3)*%
X194437000Y-72970000D03*
%TO.P,J4,14,Pin_14*%
%TO.N,Net-(J1-CLK)*%
X194437000Y-75510000D03*
%TD*%
D10*
%TO.P,13,1*%
%TO.N,N/C*%
X128066800Y-74345800D03*
%TD*%
%TO.P,12,1*%
%TO.N,N/C*%
X125526800Y-74345800D03*
%TD*%
D11*
%TO.P,J2,1,CS*%
%TO.N,Net-(J1-CS)*%
X161848800Y-78308200D03*
D12*
%TO.P,J2,2,START*%
%TO.N,Net-(J1-START{slash}CS)*%
X161848800Y-80848200D03*
%TO.P,J2,3,DRDY*%
%TO.N,Net-(J1-DRDYB)*%
X161848800Y-83388200D03*
%TO.P,J2,4,RESET*%
%TO.N,Net-(J1-RESETB)*%
X161848800Y-85928200D03*
%TD*%
D10*
%TO.P,15,1*%
%TO.N,N/C*%
X133146800Y-74345800D03*
%TD*%
%TO.P,70,1*%
%TO.N,N/C*%
X135026400Y-92583000D03*
%TD*%
%TO.P,20,1*%
%TO.N,N/C*%
X125526800Y-76885800D03*
%TD*%
%TO.P,27,1*%
%TO.N,N/C*%
X147726400Y-92583000D03*
%TD*%
%TO.P,9,1*%
%TO.N,N/C*%
X147726400Y-97663000D03*
%TD*%
%TO.P,25,1*%
%TO.N,N/C*%
X138226800Y-76885800D03*
%TD*%
%TO.P,42,1*%
%TO.N,N/C*%
X120446800Y-81965800D03*
%TD*%
D17*
%TO.P,C2,1*%
%TO.N,Net-(PS1-+VIN)*%
X142748000Y-40410651D03*
D13*
%TO.P,C2,2*%
%TO.N,GND*%
X142748000Y-36610651D03*
%TD*%
D10*
%TO.P,47,1*%
%TO.N,N/C*%
X133146800Y-81965800D03*
%TD*%
%TO.P,18,1*%
%TO.N,N/C*%
X120446800Y-76885800D03*
%TD*%
D11*
%TO.P,J3,1,Pin_1*%
%TO.N,GND*%
X171983400Y-42490000D03*
D12*
%TO.P,J3,2,Pin_2*%
%TO.N,Net-(1-0{slash}RX1)*%
X171983400Y-45030000D03*
%TO.P,J3,3,Pin_3*%
%TO.N,Net-(1-1{slash}TX1)*%
X171983400Y-47570000D03*
%TO.P,J3,4,Pin_4*%
%TO.N,Net-(J3-Pin_4)*%
X171983400Y-50110000D03*
%TO.P,J3,5,Pin_5*%
%TO.N,Net-(J1-DRDYB)*%
X171983400Y-52650000D03*
%TO.P,J3,6,Pin_6*%
%TO.N,Net-(J1-START{slash}CS)*%
X171983400Y-55190000D03*
%TO.P,J3,7,Pin_7*%
%TO.N,Net-(J1-CS)*%
X171983400Y-57730000D03*
%TO.P,J3,8,Pin_8*%
%TO.N,Net-(J1-RESETB)*%
X171983400Y-60270000D03*
%TO.P,J3,9,Pin_9*%
%TO.N,Net-(1-7{slash}RX2)*%
X171983400Y-62810000D03*
%TO.P,J3,10,Pin_10*%
%TO.N,Net-(1-8{slash}TX2)*%
X171983400Y-65350000D03*
%TO.P,J3,11,Pin_11*%
%TO.N,Net-(J3-Pin_11)*%
X171983400Y-67890000D03*
%TO.P,J3,12,Pin_12*%
%TO.N,Net-(J3-Pin_12)*%
X171983400Y-70430000D03*
%TO.P,J3,13,Pin_13*%
%TO.N,Net-(J1-DIN)*%
X171983400Y-72970000D03*
%TO.P,J3,14,Pin_14*%
%TO.N,Net-(J1-DOUT)*%
X171983400Y-75510000D03*
%TD*%
D10*
%TO.P,45,1*%
%TO.N,N/C*%
X128066800Y-81965800D03*
%TD*%
%TO.P,22,1*%
%TO.N,N/C*%
X130606800Y-76885800D03*
%TD*%
%TO.P,3,1*%
%TO.N,N/C*%
X122986800Y-71805800D03*
%TD*%
D11*
%TO.P,J7,1,Pin_1*%
%TO.N,Net-(1-14{slash}A0{slash}TX3)*%
X207995600Y-80314800D03*
D12*
%TO.P,J7,2,Pin_2*%
%TO.N,GND*%
X210535600Y-80314800D03*
%TD*%
D10*
%TO.P,69,1*%
%TO.N,N/C*%
X137566400Y-92583000D03*
%TD*%
%TO.P,17,1*%
%TO.N,N/C*%
X138226800Y-74345800D03*
%TD*%
D18*
%TO.P,X1,1,Pin_1*%
%TO.N,+9V*%
X131529600Y-48417800D03*
D19*
%TO.P,X1,2,Pin_2*%
%TO.N,GND*%
X131529600Y-45917800D03*
%TD*%
D10*
%TO.P,34,1*%
%TO.N,N/C*%
X120446800Y-79425800D03*
%TD*%
D11*
%TO.P,J6,1,Pin_1*%
%TO.N,Net-(J6-Pin_1)*%
X215900000Y-73279000D03*
D12*
%TO.P,J6,2,Pin_2*%
%TO.N,GND*%
X218440000Y-73279000D03*
%TD*%
D10*
%TO.P,71,1*%
%TO.N,N/C*%
X142646400Y-95123000D03*
%TD*%
%TO.P,25,1*%
%TO.N,N/C*%
X142646400Y-97663000D03*
%TD*%
%TO.P,62,1*%
%TO.N,N/C*%
X135026400Y-87503000D03*
%TD*%
%TO.P,21,1*%
%TO.N,N/C*%
X128066800Y-76885800D03*
%TD*%
%TO.P,23,1*%
%TO.N,N/C*%
X133146800Y-76885800D03*
%TD*%
%TO.P,66,1*%
%TO.N,N/C*%
X142646400Y-90043000D03*
%TD*%
%TO.P,10,1*%
%TO.N,N/C*%
X120446800Y-74345800D03*
%TD*%
%TO.P,57,1*%
%TO.N,N/C*%
X132486400Y-87503000D03*
%TD*%
%TO.P,60,1*%
%TO.N,N/C*%
X142646400Y-87503000D03*
%TD*%
%TO.P,67,1*%
%TO.N,N/C*%
X137566400Y-90043000D03*
%TD*%
%TO.P,37,1*%
%TO.N,N/C*%
X128066800Y-79425800D03*
%TD*%
%TO.P,29,1*%
%TO.N,N/C*%
X142646400Y-92583000D03*
%TD*%
%TO.P,6,1*%
%TO.N,N/C*%
X130606800Y-71805800D03*
%TD*%
%TO.P,61,1*%
%TO.N,N/C*%
X137566400Y-87503000D03*
%TD*%
D13*
%TO.P,R2,1*%
%TO.N,Net-(1-15{slash}A1{slash}RX3)*%
X201320400Y-68173600D03*
%TO.P,R2,2*%
%TO.N,Net-(J6-Pin_1)*%
X211480400Y-68173600D03*
%TD*%
D20*
%TO.P,PS1,1,+VIN*%
%TO.N,Net-(PS1-+VIN)*%
X157962600Y-46964600D03*
D21*
%TO.P,PS1,2,GND*%
%TO.N,GND*%
X157962600Y-44424600D03*
%TO.P,PS1,3,+VOUT*%
%TO.N,Net-(J4-Pin_1)*%
X157962600Y-41884600D03*
%TD*%
D10*
%TO.P,16,1*%
%TO.N,N/C*%
X135686800Y-74345800D03*
%TD*%
D22*
%TO.P,J1,1,START/CS*%
%TO.N,Net-(J1-START{slash}CS)*%
X173020000Y-90400000D03*
D12*
%TO.P,J1,2,CLKSEL*%
%TO.N,unconnected-(J1-CLKSEL-Pad2)*%
X173020000Y-87860000D03*
%TO.P,J1,3,CLK*%
%TO.N,Net-(J1-CLK)*%
X175560000Y-90400000D03*
%TO.P,J1,4,GND*%
%TO.N,GND*%
X175560000Y-87860000D03*
%TO.P,J1,5,NC*%
%TO.N,unconnected-(J1-NC-Pad5)*%
X178100000Y-90400000D03*
%TO.P,J1,6,GPIO1*%
%TO.N,unconnected-(J1-GPIO1-Pad6)*%
X178100000Y-87860000D03*
%TO.P,J1,7,CS*%
%TO.N,Net-(J1-CS)*%
X180640000Y-90400000D03*
%TO.P,J1,8,RESETB*%
%TO.N,Net-(J1-RESETB)*%
X180640000Y-87860000D03*
%TO.P,J1,9,NC*%
%TO.N,unconnected-(J1-NC-Pad9)*%
X183180000Y-90400000D03*
%TO.P,J1,10,GND*%
%TO.N,unconnected-(J1-GND-Pad10)*%
X183180000Y-87860000D03*
%TO.P,J1,11,DIN*%
%TO.N,Net-(J1-DIN)*%
X185720000Y-90400000D03*
%TO.P,J1,12,GPIO2*%
%TO.N,unconnected-(J1-GPIO2-Pad12)*%
X185720000Y-87860000D03*
%TO.P,J1,13,DOUT*%
%TO.N,Net-(J1-DOUT)*%
X188260000Y-90400000D03*
%TO.P,J1,14,NC/START*%
%TO.N,unconnected-(J1-NC{slash}START-Pad14)*%
X188260000Y-87860000D03*
%TO.P,J1,15,DRDYB*%
%TO.N,Net-(J1-DRDYB)*%
X190800000Y-90400000D03*
%TO.P,J1,16,SCL*%
%TO.N,unconnected-(J1-SCL-Pad16)*%
X190800000Y-87860000D03*
%TO.P,J1,17,EXT_CLK*%
%TO.N,unconnected-(J1-EXT_CLK-Pad17)*%
X193340000Y-90400000D03*
%TO.P,J1,18,GND*%
%TO.N,unconnected-(J1-GND-Pad18)*%
X193340000Y-87860000D03*
%TO.P,J1,19,NC*%
%TO.N,unconnected-(J1-NC-Pad19)*%
X195880000Y-90400000D03*
%TO.P,J1,20,SDA*%
%TO.N,unconnected-(J1-SDA-Pad20)*%
X195880000Y-87860000D03*
%TD*%
D10*
%TO.P,49,1*%
%TO.N,N/C*%
X135026400Y-97663000D03*
%TD*%
%TO.P,39,1*%
%TO.N,N/C*%
X133146800Y-79425800D03*
%TD*%
%TO.P,9,1*%
%TO.N,N/C*%
X138226800Y-71805800D03*
%TD*%
%TO.P,33,1*%
%TO.N,N/C*%
X138226800Y-79425800D03*
%TD*%
D23*
%TO.N,*%
X135026400Y-95123000D02*
X137566400Y-95123000D01*
X142646400Y-95123000D02*
X145186400Y-95123000D01*
X142646400Y-90043000D02*
X145186400Y-90043000D01*
X132486400Y-90043000D02*
X135026400Y-90043000D01*
X142646400Y-97663000D02*
X145186400Y-97663000D01*
X132486400Y-87503000D02*
X135026400Y-87503000D01*
X135026400Y-97663000D02*
X137566400Y-97663000D01*
X145186400Y-97663000D02*
X147726400Y-97663000D01*
X142646400Y-87503000D02*
X145186400Y-87503000D01*
X132486400Y-92583000D02*
X135026400Y-92583000D01*
X132486400Y-95123000D02*
X135026400Y-95123000D01*
X145186400Y-95123000D02*
X147726400Y-95123000D01*
X135026400Y-87503000D02*
X137566400Y-87503000D01*
X145186400Y-92583000D02*
X147726400Y-92583000D01*
X142646400Y-92583000D02*
X145186400Y-92583000D01*
X135026400Y-92583000D02*
X137566400Y-92583000D01*
X135026400Y-90043000D02*
X137566400Y-90043000D01*
X145186400Y-87503000D02*
X147726400Y-87503000D01*
X132486400Y-97663000D02*
X135026400Y-97663000D01*
X145186400Y-90043000D02*
X147726400Y-90043000D01*
%TO.N,GND*%
X140482000Y-45917800D02*
X144348200Y-49784000D01*
X140836749Y-36610651D02*
X131529600Y-45917800D01*
X142748000Y-36610651D02*
X140836749Y-36610651D01*
X206738200Y-45030000D02*
X194437000Y-45030000D01*
X164515800Y-42697400D02*
X171983400Y-42697400D01*
X157962600Y-44424600D02*
X162788600Y-44424600D01*
X162788600Y-44424600D02*
X164515800Y-42697400D01*
X171983400Y-42697400D02*
X175772600Y-42697400D01*
X175980000Y-42490000D02*
X188680000Y-42490000D01*
X150148651Y-36610651D02*
X157962600Y-44424600D01*
X215392000Y-55168800D02*
X215392000Y-53683800D01*
X215392000Y-53683800D02*
X206738200Y-45030000D01*
X131529600Y-45917800D02*
X140482000Y-45917800D01*
X175772600Y-42697400D02*
X175980000Y-42490000D01*
X188680000Y-42490000D02*
X191220000Y-45030000D01*
X142748000Y-36610651D02*
X150148651Y-36610651D01*
X191220000Y-45030000D02*
X194437000Y-45030000D01*
%TO.N,Net-(PS1-+VIN)*%
X142748000Y-40410651D02*
X151408651Y-40410651D01*
X155041600Y-60401200D02*
X157962600Y-57480200D01*
X157962600Y-57480200D02*
X157962600Y-46964600D01*
X151408651Y-40410651D02*
X157962600Y-46964600D01*
%TO.N,+9V*%
X131529600Y-48417800D02*
X131529600Y-57110723D01*
X131529600Y-57110723D02*
X128239123Y-60401200D01*
X131529600Y-48417800D02*
X131529600Y-52129200D01*
X131529600Y-52129200D02*
X139801600Y-60401200D01*
D24*
%TO.N,Net-(J3-Pin_12)*%
X171983400Y-70430000D02*
X175980000Y-70430000D01*
%TO.N,Net-(J1-RESETB)*%
X161848800Y-85928200D02*
X165303200Y-82473800D01*
X171983400Y-60270000D02*
X175980000Y-60270000D01*
X165303200Y-66950200D02*
X171983400Y-60270000D01*
X165303200Y-82473800D02*
X165303200Y-66950200D01*
X178708200Y-85928200D02*
X180640000Y-87860000D01*
X161848800Y-85928200D02*
X178708200Y-85928200D01*
%TO.N,Net-(J1-DOUT)*%
X186969400Y-87249000D02*
X186969400Y-89109400D01*
X186969400Y-89109400D02*
X188260000Y-90400000D01*
D25*
X175980000Y-75510000D02*
X175980000Y-76259600D01*
D24*
X175980000Y-76259600D02*
X186969400Y-87249000D01*
X171983400Y-75510000D02*
X175980000Y-75510000D01*
%TO.N,Net-(1-1{slash}TX1)*%
X171983400Y-47570000D02*
X175980000Y-47570000D01*
%TO.N,Net-(J1-CLK)*%
X191220000Y-75510000D02*
X194437000Y-75510000D01*
%TO.N,Net-(1-17{slash}A3{slash}TX4)*%
X191220000Y-65350000D02*
X194437000Y-65350000D01*
%TO.N,Net-(J1-START{slash}CS)*%
X161848800Y-80848200D02*
X160274000Y-79273400D01*
X171983400Y-55190000D02*
X175980000Y-55190000D01*
X160274000Y-79273400D02*
X160274000Y-66899400D01*
X175975800Y-55194200D02*
X175980000Y-55190000D01*
X160274000Y-66899400D02*
X171983400Y-55190000D01*
%TO.N,Net-(1-7{slash}RX2)*%
X171983400Y-62810000D02*
X175980000Y-62810000D01*
%TO.N,Net-(1-0{slash}RX1)*%
X179768800Y-48818800D02*
X175980000Y-45030000D01*
X171983400Y-45030000D02*
X175980000Y-45030000D01*
X207772000Y-55168800D02*
X201422000Y-48818800D01*
X201422000Y-48818800D02*
X179768800Y-48818800D01*
%TO.N,Net-(J1-CS)*%
X171983400Y-57730000D02*
X175980000Y-57730000D01*
X161848800Y-67864600D02*
X171983400Y-57730000D01*
X161848800Y-78308200D02*
X161848800Y-67864600D01*
%TO.N,Net-(1-15{slash}A1{slash}RX3)*%
X194437000Y-70430000D02*
X196693400Y-68173600D01*
X191220000Y-70430000D02*
X194437000Y-70430000D01*
X196693400Y-68173600D02*
X201320400Y-68173600D01*
%TO.N,Net-(J1-DIN)*%
X171983400Y-72970000D02*
X175980000Y-72970000D01*
X186512200Y-82931000D02*
X189534800Y-85953600D01*
X175980000Y-72970000D02*
X177190400Y-74180400D01*
X177190400Y-75920600D02*
X184200800Y-82931000D01*
X189534800Y-90906600D02*
X188696600Y-91744800D01*
X186512200Y-91744800D02*
X185720000Y-90952600D01*
X177190400Y-74180400D02*
X177190400Y-75920600D01*
X185720000Y-90952600D02*
X185720000Y-90400000D01*
X188696600Y-91744800D02*
X186512200Y-91744800D01*
X184200800Y-82931000D02*
X186512200Y-82931000D01*
X189534800Y-85953600D02*
X189534800Y-90906600D01*
%TO.N,Net-(1-14{slash}A0{slash}TX3)*%
X191220000Y-72970000D02*
X194437000Y-72970000D01*
%TO.N,Net-(J3-Pin_4)*%
X175975800Y-50114200D02*
X175980000Y-50110000D01*
X171983400Y-50110000D02*
X175980000Y-50110000D01*
%TO.N,Net-(J1-DRDYB)*%
X171983400Y-52650000D02*
X175980000Y-52650000D01*
X161848800Y-83388200D02*
X159105600Y-80645000D01*
X159105600Y-80645000D02*
X159105600Y-65527800D01*
X159105600Y-65527800D02*
X171983400Y-52650000D01*
%TO.N,Net-(J3-Pin_11)*%
X171983400Y-67890000D02*
X175980000Y-67890000D01*
%TO.N,Net-(1-8{slash}TX2)*%
X171983400Y-65350000D02*
X175980000Y-65350000D01*
%TO.N,Net-(1-16{slash}A2{slash}RX4)*%
X191220000Y-67890000D02*
X194437000Y-67890000D01*
X196693400Y-65633600D02*
X194437000Y-67890000D01*
X201320400Y-65633600D02*
X196693400Y-65633600D01*
%TO.N,Net-(J4-Pin_5)*%
X191220000Y-52650000D02*
X194437000Y-52650000D01*
D25*
%TO.N,Net-(1-21{slash}A7{slash}RX5)*%
X191220000Y-55190000D02*
X194437000Y-55190000D01*
%TO.N,Net-(1-20{slash}A6{slash}TX5)*%
X191220000Y-57730000D02*
X194437000Y-57730000D01*
%TO.N,Net-(J4-Pin_8)*%
X191220000Y-60270000D02*
X194437000Y-60270000D01*
D24*
%TO.N,Net-(J4-Pin_9)*%
X191220000Y-62810000D02*
X194437000Y-62810000D01*
%TO.N,Net-(J4-Pin_4)*%
X191220000Y-50110000D02*
X194437000Y-50110000D01*
D23*
%TO.N,Net-(J4-Pin_3)*%
X191220000Y-47570000D02*
X194437000Y-47570000D01*
X203221200Y-47570000D02*
X194437000Y-47570000D01*
X204444600Y-48793400D02*
X203221200Y-47570000D01*
X194492000Y-47625000D02*
X194437000Y-47570000D01*
%TO.N,Net-(J4-Pin_1)*%
X191220000Y-42490000D02*
X194437000Y-42490000D01*
D24*
%TO.N,Net-(J5-Pin_1)*%
X206552800Y-70561200D02*
X206552800Y-73279000D01*
X211480400Y-65633600D02*
X206552800Y-70561200D01*
%TO.N,Net-(J6-Pin_1)*%
X215900000Y-72593200D02*
X215900000Y-73279000D01*
X211480400Y-68173600D02*
X215900000Y-72593200D01*
D23*
%TO.N,Net-(J8-Pin_1)*%
X210312000Y-55168800D02*
X206984600Y-51841400D01*
X206984600Y-51841400D02*
X206984600Y-48793400D01*
%TD*%
M02*
